<svg width="472" height="359" viewBox="0 0 472 359" fill="none" xmlns="http://www.w3.org/2000/svg">
<path d="M217.983 143.624C220.553 143.624 222.802 143.993 224.73 144.731C226.657 145.468 228.335 146.741 229.763 148.551V130.63L231.048 129.417H240.829L242.114 130.63V181.107L240.829 182.392H231.048L229.763 181.107V177.823C228.335 179.631 226.622 180.939 224.622 181.749C222.623 182.559 220.339 182.964 217.769 182.963C215.103 182.963 212.688 182.499 210.522 181.571C208.399 180.673 206.498 179.32 204.953 177.608C203.406 175.895 202.204 173.836 201.348 171.433C200.491 169.029 200.063 166.352 200.063 163.401C200.063 160.307 200.491 157.534 201.348 155.083C202.204 152.632 203.418 150.562 204.989 148.872C206.56 147.181 208.452 145.884 210.665 144.981C212.878 144.077 215.317 143.624 217.983 143.624ZM221.909 153.405C218.911 153.405 216.579 154.286 214.913 156.047C213.247 157.808 212.414 160.164 212.414 163.115C212.414 166.161 213.247 168.564 214.913 170.326C216.579 172.087 218.911 172.968 221.909 172.968C223.623 172.968 225.158 172.587 226.515 171.825C227.871 171.064 228.954 170.064 229.763 168.827V157.618C228.954 156.284 227.823 155.249 226.372 154.512C224.92 153.774 223.433 153.405 221.909 153.405ZM268.673 143.482C271.815 143.482 274.67 143.946 277.241 144.874C279.811 145.802 282.024 147.123 283.88 148.836C285.737 150.55 287.165 152.62 288.164 155.048C289.164 157.475 289.663 160.164 289.663 163.115C289.663 166.066 289.164 168.755 288.164 171.183C287.165 173.61 285.737 175.681 283.88 177.394C282.024 179.108 279.811 180.44 277.241 181.392C274.67 182.344 271.815 182.82 268.673 182.82C265.532 182.82 262.664 182.344 260.07 181.392C257.476 180.44 255.251 179.108 253.395 177.394C251.538 175.681 250.111 173.61 249.111 171.183C248.111 168.755 247.612 166.066 247.612 163.115C247.612 160.164 248.111 157.475 249.111 155.048C250.111 152.62 251.538 150.55 253.395 148.836C255.251 147.123 257.476 145.802 260.07 144.874C262.664 143.946 265.532 143.482 268.673 143.482ZM268.673 153.263C266.103 153.263 264.021 154.179 262.426 156.011C260.832 157.844 260.034 160.259 260.034 163.258C260.034 166.257 260.832 168.672 262.426 170.505C264.021 172.337 266.103 173.253 268.673 173.253C271.243 173.253 273.314 172.337 274.885 170.505C276.455 168.672 277.241 166.257 277.241 163.258C277.241 160.259 276.455 157.843 274.885 156.011C273.314 154.18 271.243 153.263 268.673 153.263ZM321.149 143.41C323.29 143.41 325.218 143.755 326.932 144.445C328.601 145.107 330.11 146.117 331.358 147.408C332.596 148.693 333.547 150.252 334.214 152.085C334.88 153.916 335.213 155.951 335.213 158.189V181.107L333.928 182.392H324.076L322.862 181.107L322.933 160.973C322.933 158.546 322.327 156.725 321.113 155.512C319.899 154.298 318.245 153.691 316.151 153.691C314.628 153.691 313.14 153.989 311.689 154.583C310.237 155.178 309.107 155.904 308.297 156.761V181.107L307.012 182.392H297.16L295.946 181.107V145.195L297.16 143.91H307.012L308.297 145.195V148.979C309.535 147.313 311.272 145.98 313.509 144.981C315.746 143.981 318.293 143.457 321.149 143.41ZM372.053 160.616L384.761 181.107L383.476 182.392H371.91L370.768 181.535L364.057 170.041L356.989 178.608V181.107L355.704 182.392H345.923L344.637 181.107V130.63L345.923 129.417H355.704L356.989 130.63V162.615L370.839 144.552L371.91 143.91H383.476L384.761 145.195L372.053 160.616ZM423.101 180.607C422.244 180.939 421.268 181.249 420.173 181.535C419.066 181.824 417.947 182.062 416.818 182.249C415.676 182.439 414.521 182.581 413.355 182.677C412.275 182.769 411.191 182.816 410.107 182.82C406.251 182.82 402.955 182.439 400.219 181.678C397.482 180.916 395.233 179.75 393.472 178.18C391.711 176.609 390.414 174.586 389.581 172.111C388.748 169.636 388.331 166.685 388.331 163.258C388.331 160.164 388.807 157.392 389.759 154.94C390.711 152.489 392.056 150.419 393.793 148.729C395.53 147.039 397.648 145.742 400.147 144.838C402.646 143.934 405.442 143.482 408.536 143.482C412.296 143.482 415.426 144.1 417.924 145.338C420.423 146.575 422.351 148.217 423.707 150.264C425.064 152.311 425.885 154.667 426.171 157.332C426.456 159.997 426.242 162.781 425.528 165.685L424.172 166.471H400.611C400.706 168.659 401.587 170.266 403.253 171.29C404.919 172.313 407.632 172.825 411.392 172.825C413.391 172.825 415.521 172.611 417.782 172.182C420.042 171.754 422.03 171.207 423.743 170.54L424.743 171.397L424.1 179.465L423.101 180.607ZM408.536 153.263C407.203 153.263 406.037 153.453 405.038 153.834C404.038 154.214 403.217 154.702 402.575 155.297C401.945 155.876 401.446 156.582 401.111 157.368C400.779 158.147 400.609 158.985 400.611 159.831H414.248C414.628 158.022 414.39 156.475 413.534 155.19C412.677 153.906 411.011 153.263 408.536 153.263ZM471.935 145.124V177.251C471.935 180.536 471.411 183.391 470.364 185.819C469.317 188.246 467.806 190.269 465.83 191.887C463.855 193.506 461.463 194.719 458.655 195.529C455.847 196.338 452.682 196.742 449.16 196.742C446.542 196.742 443.984 196.516 441.485 196.064C438.986 195.611 436.832 194.957 435.024 194.101L434.024 192.887V184.676L434.952 183.891C435.809 184.414 436.773 184.878 437.844 185.283C438.915 185.687 440.045 186.032 441.235 186.319C442.425 186.604 443.627 186.818 444.84 186.961C446.054 187.104 447.208 187.175 448.303 187.175C451.73 187.175 454.467 186.378 456.514 184.784C458.56 183.189 459.583 180.797 459.583 177.608V173.682C458.346 175.348 456.609 176.68 454.372 177.68C452.135 178.679 449.588 179.203 446.732 179.25C444.59 179.25 442.663 178.905 440.949 178.215C439.28 177.554 437.77 176.544 436.523 175.252C435.285 173.966 434.334 172.408 433.667 170.576C433.001 168.743 432.668 166.708 432.668 164.472V145.124L433.953 143.91H443.734L445.019 145.124L444.947 161.045C444.947 163.472 445.554 165.293 446.768 166.506C447.982 167.72 449.636 168.327 451.73 168.327C453.253 168.327 454.74 168.03 456.192 167.435C457.644 166.84 458.774 166.114 459.583 165.257V145.124L460.869 143.91H470.65L471.935 145.124Z" fill="#371B04"/>
<path d="M247.161 194.63C248.466 194.63 249.608 194.817 250.586 195.192C251.565 195.567 252.417 196.213 253.142 197.131V188.033L253.794 187.417H258.76L259.413 188.033V213.661L258.76 214.313H253.794L253.142 213.661V211.993C252.417 212.911 251.547 213.576 250.532 213.987C249.517 214.398 248.357 214.603 247.052 214.603C245.699 214.603 244.473 214.367 243.373 213.896C242.295 213.44 241.33 212.753 240.546 211.884C239.76 211.014 239.15 209.969 238.715 208.749C238.28 207.529 238.063 206.169 238.063 204.671C238.063 203.1 238.28 201.693 238.715 200.448C239.15 199.204 239.766 198.153 240.564 197.294C241.361 196.436 242.322 195.778 243.446 195.319C244.569 194.86 245.808 194.63 247.161 194.63ZM249.155 199.596C247.632 199.596 246.448 200.043 245.602 200.937C244.756 201.831 244.334 203.028 244.334 204.526C244.334 206.073 244.756 207.293 245.602 208.187C246.448 209.081 247.632 209.528 249.155 209.528C250.025 209.528 250.804 209.335 251.493 208.948C252.181 208.562 252.731 208.054 253.142 207.426V201.735C252.731 201.058 252.157 200.532 251.42 200.158C250.683 199.783 249.928 199.596 249.155 199.596ZM272.897 194.558C274.492 194.558 275.942 194.793 277.247 195.265C278.552 195.736 279.676 196.406 280.618 197.276C281.561 198.146 282.286 199.197 282.793 200.43C283.301 201.662 283.554 203.028 283.554 204.526C283.554 206.024 283.301 207.39 282.793 208.622C282.286 209.855 281.561 210.906 280.618 211.776C279.676 212.646 278.552 213.322 277.247 213.806C275.942 214.289 274.492 214.531 272.897 214.531C271.302 214.531 269.846 214.289 268.529 213.806C267.212 213.322 266.083 212.646 265.14 211.776C264.198 210.906 263.473 209.855 262.965 208.622C262.458 207.39 262.204 206.024 262.204 204.526C262.204 203.028 262.458 201.662 262.965 200.43C263.473 199.197 264.198 198.146 265.14 197.276C266.083 196.406 267.212 195.736 268.529 195.265C269.846 194.793 271.302 194.558 272.897 194.558ZM272.897 199.524C271.592 199.524 270.535 199.989 269.726 200.919C268.916 201.85 268.511 203.076 268.511 204.598C268.511 206.121 268.916 207.347 269.726 208.278C270.535 209.208 271.592 209.673 272.897 209.673C274.202 209.673 275.253 209.208 276.051 208.278C276.848 207.347 277.247 206.121 277.247 204.598C277.247 203.076 276.848 201.85 276.051 200.919C275.253 199.989 274.202 199.524 272.897 199.524ZM299.54 194.521C300.627 194.521 301.606 194.697 302.476 195.047C303.324 195.383 304.09 195.896 304.723 196.551C305.352 197.204 305.835 197.995 306.173 198.926C306.512 199.856 306.681 200.889 306.681 202.025V213.661L306.028 214.313H301.026L300.41 213.661L300.446 203.439C300.446 202.206 300.138 201.282 299.522 200.666C298.906 200.049 298.066 199.741 297.003 199.741C296.229 199.741 295.474 199.892 294.737 200.194C294 200.496 293.426 200.865 293.015 201.3V213.661L292.363 214.313H287.36L286.744 213.661V195.428L287.36 194.775H292.363L293.015 195.428V197.349C293.644 196.503 294.526 195.826 295.661 195.319C296.797 194.811 298.09 194.546 299.54 194.521ZM325.385 203.257L331.837 213.661L331.185 214.313H325.313L324.733 213.878L321.325 208.042L317.737 212.392V213.661L317.084 214.313H312.118L311.466 213.661V188.033L312.118 187.417H317.084L317.737 188.033V204.272L324.769 195.101L325.313 194.775H331.185L331.837 195.428L325.385 203.257ZM351.303 213.407C350.868 213.576 350.372 213.733 349.816 213.878C349.254 214.025 348.686 214.145 348.113 214.241C347.53 214.338 346.944 214.41 346.355 214.458C345.806 214.504 345.256 214.529 344.705 214.531C342.748 214.531 341.075 214.337 339.685 213.951C338.296 213.564 337.154 212.972 336.26 212.174C335.365 211.377 334.707 210.35 334.284 209.093C333.861 207.837 333.65 206.338 333.65 204.598C333.65 203.028 333.891 201.62 334.375 200.376C334.858 199.131 335.541 198.08 336.423 197.222C337.305 196.364 338.38 195.705 339.649 195.246C340.918 194.788 342.337 194.558 343.908 194.558C345.817 194.558 347.406 194.872 348.675 195.5C349.943 196.128 350.922 196.962 351.611 198.001C352.3 199.041 352.716 200.237 352.861 201.59C353.006 202.943 352.898 204.356 352.535 205.831L351.846 206.23H339.884C339.933 207.341 340.38 208.157 341.226 208.676C342.071 209.196 343.449 209.456 345.358 209.456C346.373 209.456 347.454 209.347 348.602 209.13C349.75 208.912 350.759 208.634 351.629 208.296L352.136 208.731L351.81 212.827L351.303 213.407ZM343.908 199.524C343.231 199.524 342.639 199.62 342.132 199.814C341.624 200.007 341.207 200.255 340.881 200.557C340.562 200.85 340.308 201.209 340.138 201.608C339.97 202.003 339.883 202.429 339.884 202.859H346.808C347.001 201.94 346.88 201.155 346.445 200.502C346.01 199.85 345.165 199.524 343.908 199.524ZM376.097 195.391V211.703C376.097 213.371 375.831 214.821 375.299 216.053C374.767 217.285 374 218.312 372.997 219.134C371.994 219.956 370.78 220.572 369.354 220.983C367.929 221.394 366.322 221.599 364.533 221.599C363.204 221.599 361.905 221.484 360.637 221.255C359.368 221.025 358.274 220.693 357.356 220.258L356.849 219.642V215.473L357.32 215.074C357.755 215.34 358.244 215.576 358.788 215.781C359.332 215.987 359.906 216.162 360.51 216.307C361.114 216.452 361.724 216.56 362.34 216.633C362.957 216.705 363.543 216.742 364.098 216.742C365.838 216.742 367.228 216.337 368.267 215.527C369.306 214.718 369.826 213.504 369.826 211.884V209.891C369.197 210.737 368.315 211.413 367.179 211.921C366.044 212.428 364.751 212.694 363.301 212.718C362.213 212.718 361.235 212.543 360.365 212.193C359.517 211.857 358.751 211.344 358.117 210.688C357.489 210.036 357.006 209.244 356.667 208.314C356.329 207.384 356.16 206.35 356.16 205.215V195.391L356.812 194.775H361.778L362.431 195.391L362.395 203.475C362.395 204.707 362.703 205.632 363.319 206.248C363.935 206.864 364.775 207.172 365.838 207.172C366.612 207.172 367.367 207.021 368.104 206.719C368.841 206.417 369.415 206.048 369.826 205.613V195.391L370.478 194.775H375.444L376.097 195.391ZM415.644 213.624L414.955 214.313H409.518L408.865 213.624L407.198 209.383L396.178 209.347L394.438 213.733L393.858 214.313H388.457L387.914 213.733L397.954 189.41L398.534 188.939H405.204L405.784 189.374L415.644 213.624ZM405.421 204.743L402.05 195.101H401.289L397.918 204.743H405.421ZM424.706 189.592V213.661L424.053 214.313H418.87L418.253 213.661V189.592L418.87 188.939H424.053L424.706 189.592Z" fill="#371B04"/>
<path d="M262.377 229.669V232.306L261.723 232.974H254.313L254.277 254.369L253.66 255H250.645L250.027 254.369V232.974H242.617L242 232.306V229.669L242.617 229H261.723L262.377 229.669ZM293.687 237.877C293.687 239.982 293.233 241.746 292.325 243.17C291.417 244.594 290.115 245.64 288.42 246.309L294.268 254.331L293.614 255H289.437L283.989 247.126C283.796 247.151 283.602 247.163 283.408 247.163H277.415V254.331L276.761 255H273.782L273.128 254.331V229.669L273.782 229H283.444C286.713 229 289.237 229.768 291.017 231.303C292.797 232.838 293.687 235.03 293.687 237.877ZM283.444 243.226C285.405 243.226 286.925 242.799 288.003 241.944C289.08 241.09 289.619 239.771 289.619 237.989C289.619 236.28 289.08 235.011 288.003 234.181C286.925 233.352 285.405 232.937 283.444 232.937H277.415V243.226H283.444ZM329.828 254.331L329.174 255H325.724L325.251 254.554L323.036 249.28H309.887L307.744 254.48L307.308 255H303.894L303.276 254.331L313.773 229.446L314.355 229H318.895L319.367 229.371L329.828 254.331ZM321.51 245.603L316.825 233.569H316.134L311.376 245.566L321.51 245.603ZM345.483 254.591L335.785 229.669L336.439 229H339.78L340.507 229.594L347.699 250.394H348.316L355.617 229.594L356.344 229H359.54L360.157 229.669L350.278 254.629L349.733 255H346.028L345.483 254.591ZM376.503 232.937V239.957H385.002L385.62 240.626V243.151L385.002 243.783H376.503V251.063H389.724L390.378 251.731V254.369L389.724 255H372.834L372.216 254.369V229.669L372.834 229H389.724L390.378 229.669V232.306L389.724 232.937H376.503ZM419 251.694V254.369L418.346 255H404.326L403.708 254.369V229.669L404.326 229H407.34L407.994 229.669V251.026H418.346L419 251.694Z" fill="#5AA0BA"/>
<path fill-rule="evenodd" clip-rule="evenodd" d="M6.94219 303.632C4.48934 300.738 2.17276 297.731 0 294.621C1.98943 291.208 5.05335 287.758 7.29459 284.424C10.6121 279.49 13.3689 274.32 15.8798 268.947C21.1129 258.771 23.5827 251.95 26.0001 240.773C23.6523 240.792 20.395 240.898 18.5175 239.485C16.9477 236.839 20.5337 233.075 21.2962 230.309C24.0208 220.425 26.0722 210.13 28.2586 200.137C25.4352 202.272 19.1336 206.138 18.3061 200.74C17.109 192.928 26.1549 178.692 29.8606 172.47C31.5101 169.318 32.8155 166.381 34.2627 163.133C11.964 171.898 40.7048 131.145 43.4735 127.384C47.3011 122.184 52.386 116.201 55.9387 110.965C53.1712 105.697 49.9739 100.977 47.0791 95.8407C45.0718 92.2792 43.2996 87.2937 41.8537 83.4118C41.2577 81.703 40.7285 79.9716 40.2673 78.2216C34.5317 56.8676 37.3313 31.6842 48.2089 12.3804C59.4098 -6.93056 68.664 0.225918 78.485 14.9627C89.1471 30.9621 93.3087 43.2279 97.4269 61.7769C97.8871 63.9128 98.3144 66.0557 98.7085 68.2048L100.774 65.5177C102.064 64.0955 103.401 62.4478 104.651 60.9691C107.792 57.9659 117.524 48.1973 122.193 51.2476C124.636 50.3284 126.129 51.0225 124.929 54.021C123.368 57.9248 122.391 59.7875 119.905 63.1901C124.132 61.5138 133.465 57.1784 138.051 58.8624C139.082 59.2416 139.834 60.4613 140.391 61.365C140.419 61.9091 140.448 62.2942 140.426 62.8395C139.575 63.5949 136.745 66.8684 135.816 67.8738C138.198 67.9869 139.835 68.0018 142.214 67.8958L142.564 64.108C144.33 44.8322 150.967 30.93 162.386 15.4955C165.946 10.6844 169.199 6.38649 173.646 2.30286C177.735 -1.45159 182.765 -0.447941 185.779 4.09763C194.836 17.757 196.675 37.0947 195.05 53.1108C194.515 57.6331 191.828 69.2763 190.094 72.9212C185.544 83.7226 181.668 90.3683 175.152 100.01C178.178 103.015 180.816 105.807 182.966 109.639C190.697 123.421 190.357 141.403 190.813 156.87C190.939 161.126 190.32 164.768 190.174 168.807C189.966 174.577 195.627 180.344 199.292 184.185C200.529 185.482 205.571 189.242 207.184 190.508C225.888 209.419 222.815 226.528 223.567 234.95C223.358 238.477 222.703 241.964 221.617 245.326C217.987 254.189 214.502 260.331 206.209 265.74C204.54 266.83 200.467 268.96 199.417 270.298C197.975 272.135 196.531 275.781 195.089 277.933C190.319 285.056 183.05 289.995 175.336 293.295C166.113 297.24 158.386 297.401 148.654 297.384C144.901 319.487 145.949 334.817 156.649 355.274C153.613 355.671 150.582 356.095 147.554 356.545C146.647 356.68 143.951 350.293 142.981 347.889C137.676 334.724 136.74 324.444 136.265 312.369C136.102 308.224 137.775 299.396 138.218 295.21C132.111 291.881 76.5146 270.163 57.4691 243.265C48.6316 230.783 46.9398 204.081 53.2164 182.013C53.2835 181.779 53.3548 181.546 53.4302 181.316L53.6706 181.327C52.3789 199.088 51.1401 214.48 59.7211 230.763C66.4061 243.449 78.6064 258.972 120.5 272.02C121.607 272.753 126.346 277.105 127.908 278.342C136.822 285.396 146.338 289.201 157.771 289.056C171.031 288.886 179.469 283.35 188.452 274.283C176.053 276.145 165.903 277.233 153.357 274.199C135.575 269.898 122.882 260.083 115.838 243.2C114.175 244.224 113.277 245.307 111.498 243.48C109.516 236.982 122.467 234.156 124.412 240.113C124.649 240.837 124.452 241.174 124.056 241.668C122.806 241.883 121.864 241.116 120.221 240.9C118.668 241.766 121.098 245.565 121.858 246.638C123.684 249.213 126.237 253.434 128.655 255.456C147.022 270.811 178.154 276.562 199.12 263.293C207.246 258.15 214.301 248.676 215.937 239.169C217.597 229.517 218.016 217.41 212.401 208.855C209.653 203.477 205.594 198.374 200.749 194.741C191.637 188.015 180.242 185.147 169.032 186.759C165.512 187.281 162.181 187.941 158.845 189.23L158.375 188.838L158.583 188.397C168.382 182.992 182.629 181.98 193.412 184.731C188.993 179.774 183.368 172.262 183.209 165.311C183.209 165.311 185.091 125.03 172.957 127.732C170.885 128.194 164.735 134.251 163.126 131.739C163.039 130.449 163.348 129.462 163.931 128.213C165.155 125.586 167.648 120.733 170.489 119.748C171.979 119.232 174.746 120.768 176.104 121.45C173.6 115.282 166.459 105 161.017 101.057C161.848 98.5136 164.671 96.3795 166.697 94.5621C188.804 73.6123 192.138 40.514 181.676 13.1674C181.182 11.8762 180.598 10.7952 179.297 10.2279C178.483 10.1939 177.97 10.4773 177.308 10.9089C168.101 16.9141 152.768 52.0589 150.278 63.0276C149.726 65.4581 148.986 69.5382 150.717 71.6247C151.228 72.2402 151.512 72.1979 152.23 72.1818C153.212 71.5306 153.016 71.3419 153.739 70.4204C161.802 60.1595 165.058 47.861 169.789 36.206C169.173 51.0737 156.148 72.005 155.654 74.1844C157.085 76.2941 156.653 76.8489 156.056 79.1455C155.078 79.9544 155.11 79.7324 154.956 81.3266L157.438 82.0457C158.671 83.0904 159.799 83.4803 161.098 84.7977C161.903 85.6156 162.971 86.9812 163.691 87.6229L163.801 87.8306C162.582 93.2524 156.884 94.7913 152.062 95.4074C153.626 96.886 155.216 98.4403 156.868 99.8089C157.449 100.849 158.062 101.914 158.61 102.97C160.752 107.098 158.551 107.879 152.493 106.957C146.767 106.086 144.758 105.235 139.607 102.484C141.202 105.157 144.236 109.698 144.757 112.662C145.632 117.644 136.561 115.256 134.257 114.065C129.747 111.734 126.272 108.529 122.424 105.222C123.074 106.868 122.304 113.381 119.433 113.576C109.409 114.256 102.001 106.94 95.1963 101.476C95.1963 101.476 93.52 108.782 92.9563 110.281C92.8206 110.642 91.814 112.852 91.814 112.852L91.7812 110.161C91.1133 103.42 91.6776 96.7218 91.5312 89.9849C91.074 68.9477 88.1238 47.2443 76.9057 28.9888C73.8591 24.0307 64.4869 4.39349 57.6073 15.3223C47.5815 31.249 47.0654 52.2994 49.3215 70.4841C51.3621 83.5845 63.1106 101.104 71.4101 111.049C72.2161 112.015 74.649 115.042 74.0483 116.107C72.7244 116.901 71.7089 117.64 70.4695 118.538C58.1156 128.333 53.2665 155.081 50.1906 170.016C47.7159 181.721 45.4762 193.475 43.4729 205.271C38.6094 232.84 33.9579 261.567 19.3145 285.932C15.9208 291.578 11.3997 298.856 6.94219 303.632Z" fill="#371B04"/>
<path fill-rule="evenodd" clip-rule="evenodd" d="M100.965 246.67C101.499 246.723 102.037 246.699 102.564 246.599C102.275 246.655 101.718 246.679 100.965 246.67Z" fill="#371B04"/>
<path fill-rule="evenodd" clip-rule="evenodd" d="M158.845 189.23L158.375 188.838L158.583 188.397C168.382 182.992 182.629 181.98 193.412 184.731C188.993 179.774 183.368 172.262 183.209 165.311C183.209 165.311 187.472 124.435 172.957 127.732C170.886 128.203 164.735 134.251 163.126 131.739C163.039 130.449 163.348 129.462 163.931 128.213C165.155 125.586 167.648 120.733 170.489 119.748C171.979 119.232 174.746 120.768 176.104 121.45C173.6 115.282 166.459 105 161.017 101.057C159.346 100.78 161.399 101.467 156.868 99.8089C157.449 100.849 158.062 101.914 158.61 102.97C160.752 107.098 158.551 107.879 152.493 106.957C146.767 106.086 144.758 105.235 139.607 102.484C141.202 105.157 144.236 109.698 144.757 112.662C145.632 117.644 136.561 115.256 134.257 114.065C129.747 111.734 126.272 108.529 122.424 105.222C123.074 106.868 122.304 113.381 119.433 113.576C109.409 114.256 102.001 106.94 95.1964 101.476C95.1964 101.476 93.5201 108.782 92.9563 110.281C92.8206 110.642 91.814 112.852 91.814 112.852L91.7812 110.161C91.1133 103.42 91.6777 96.7218 91.5312 89.985C91.0741 68.9477 88.1238 47.2443 76.9058 28.9888C73.8591 24.0307 64.487 4.39351 57.6073 15.3223C47.5816 31.2491 47.0654 52.2994 49.3216 70.4841C51.3622 83.5845 63.1107 101.104 71.4101 111.049C72.2161 112.015 74.649 115.042 74.0484 116.107L74.3889 116.172C75.6991 115.648 75.1026 115.621 76.2349 115.942C77.0944 117.432 76.5873 118.004 75.9819 119.591C74.121 124.632 71.3803 129.315 69.7743 134.457C68.4271 138.769 63.3881 158.266 62.3547 163.79C60.5105 173.647 59.8962 183.725 59.258 193.721C58.8937 199.431 57.7031 199.684 58.4669 208.188C60.9063 235.346 76.6849 241.954 82.8741 244.117C85.3463 244.982 89.3656 245.654 93.1486 246.092C94.5713 246.167 99.8408 246.57 100.965 246.67C101.718 246.679 102.275 246.655 102.564 246.599C103.591 245.77 103.187 245.274 102.778 244.083C102.122 243.046 101.536 242.116 101.049 240.977C99.4181 237.164 99.386 232.853 100.988 229.029C101.775 227.155 102.934 225.461 104.396 224.05C105.857 222.638 107.59 221.538 109.49 220.817C112.618 219.628 117.479 219.119 120.571 220.453C121.571 220.613 124.772 220.523 125.965 220.512C133.057 203.943 142.749 196.392 158.845 189.23ZM76.3932 91.5726C77.7016 89.8201 76.6914 87.9247 76.0015 86.1085C73.9109 83.7047 68.2176 85.8817 61.9558 50.8392C59.9634 39.6878 65.8764 38.546 74.2978 55.4157C72.5042 50.6362 70.6589 46.2918 69.2724 41.3635C83.0014 52.8822 89.6228 92.5602 79.5393 107.245C76.9736 103.801 71.2726 91.8541 69.7808 87.6235C71.9042 88.9599 74.1651 90.4582 76.3932 91.5726ZM94.1457 178.116L93.1766 177.85C92.3587 175.937 91.3157 172.387 91.2253 169.787C90.9389 161.544 92.9361 150.419 101.94 147.383C111.705 144.091 120.763 151.953 123.427 160.943C124.262 163.759 125.27 169.359 123.91 171.997L123.223 170.534C123.633 193.356 105.487 199.612 94.1457 178.116Z" fill="#A06838"/>
<path fill-rule="evenodd" clip-rule="evenodd" d="M179.987 146.445C172.713 137.456 166.735 149.691 166.286 158.616C165.994 164.42 165.888 171.152 169.686 175.873C170.037 176.309 171.142 177.018 171.673 176.91C174.74 176.285 177.288 175.751 178.811 172.56C180.974 168.029 182.485 164.53 182.283 158.408C182.075 152.112 182.191 149.168 179.987 146.445Z" fill="#371B04"/>
<path fill-rule="evenodd" clip-rule="evenodd" d="M171.673 176.91C181.188 181.494 182.614 167.863 182.374 164.049C182.047 158.867 181.812 152.054 177.393 148.704C172.518 145.009 167.655 150.447 167.455 156.399C167.336 159.973 172.916 144.74 178.116 157.217C179.612 161.762 180.974 168.029 178.811 172.56C177.288 175.751 174.74 176.285 171.673 176.91Z" fill="#ECD2A3"/>
<path fill-rule="evenodd" clip-rule="evenodd" d="M172.341 155.202C171.821 155.426 171.393 155.822 171.131 156.324C170.868 156.826 170.785 157.403 170.897 157.959C171.009 158.514 171.309 159.014 171.746 159.375C172.183 159.736 172.731 159.936 173.297 159.941C173.665 159.944 174.029 159.865 174.362 159.71C174.695 159.555 174.99 159.327 175.224 159.043C175.458 158.76 175.626 158.428 175.715 158.071C175.805 157.714 175.813 157.342 175.741 156.982C175.668 156.621 175.516 156.282 175.295 155.988C175.074 155.694 174.791 155.452 174.465 155.282C174.139 155.111 173.78 155.016 173.412 155.002C173.045 154.988 172.679 155.056 172.341 155.202Z" fill="white"/>
<path fill-rule="evenodd" clip-rule="evenodd" d="M103.414 243.579L102.778 244.083C102.122 243.046 101.536 242.116 101.049 240.977C99.418 237.164 99.3859 232.853 100.988 229.029C101.775 227.155 102.934 225.461 104.395 224.05C105.857 222.638 107.59 221.538 109.49 220.817C112.618 219.628 117.479 219.119 120.571 220.453L120.125 220.708C116.012 223.038 111.721 223.94 108.162 227.238C103.573 231.491 102.662 237.634 103.414 243.579Z" fill="#371B04"/>
<path fill-rule="evenodd" clip-rule="evenodd" d="M123.223 170.534C123.633 193.356 105.487 199.612 94.1457 178.116C93.5879 169.165 93.2891 153.566 104.15 151.107C116.325 148.351 121.272 161.814 123.223 170.534ZM106.55 158.389C107.969 158.345 109.285 158.294 110.698 158.532C112.122 158.763 113.486 159.277 114.71 160.043C115.933 160.809 116.99 161.812 117.82 162.993C122.315 169.368 121.697 182.444 114.712 187.087C103.476 189.474 99.3526 174.484 101.217 166.113C102.057 162.342 103.431 160.468 106.55 158.389Z" fill="#ECD2A3"/>
<path fill-rule="evenodd" clip-rule="evenodd" d="M94.1457 178.116L93.1765 177.85C92.3586 176.532 91.3157 172.387 91.2252 169.787C90.9389 161.544 92.936 150.419 101.94 147.383C111.705 144.091 120.763 151.953 123.427 160.943C124.262 163.759 125.27 169.359 123.91 171.997L123.223 170.534C121.271 161.814 116.325 148.351 104.15 151.107C93.2891 153.566 93.5879 169.165 94.1457 178.116Z" fill="#371B04"/>
<path fill-rule="evenodd" clip-rule="evenodd" d="M106.55 158.389C112.136 155.369 116.144 160.607 117.82 162.993C122.315 169.368 121.697 182.444 114.711 187.087C104.667 191.856 99.3524 174.484 101.217 166.113C102.057 162.342 103.431 160.468 106.55 158.389ZM111.021 159.75C114.259 160.332 116.323 161.518 113.988 164.884C110.107 164.983 108.673 163.245 111.021 159.75Z" fill="#371B04"/>
<path fill-rule="evenodd" clip-rule="evenodd" d="M111.021 159.75C113.664 158.546 116.919 162.708 113.988 164.884C110.108 166.769 107.733 161.247 111.021 159.75Z" fill="white"/>
<path fill-rule="evenodd" clip-rule="evenodd" d="M76.3932 91.5726C77.7016 89.8201 76.6914 87.9247 76.0015 86.1085C73.9109 83.7047 68.2176 85.8817 61.9558 50.8392C59.9634 39.6878 65.8763 38.546 74.2978 55.4157C75.3705 56.8355 76.0866 60.2066 76.6813 61.9394C81.1793 75.0499 80.0881 80.539 79.3982 93.315C78.4499 92.8257 77.1802 92.2482 76.3932 91.5726Z" fill="#552F12"/>
<path fill-rule="evenodd" clip-rule="evenodd" d="M74.2977 55.4157C72.5041 50.6362 70.6588 46.2918 69.2723 41.3635C83.0013 52.8822 89.6226 92.5601 79.5392 107.245C76.9735 103.801 71.2725 91.8541 69.7807 87.6235C71.9041 88.9599 74.165 90.4582 76.3931 91.5726C77.1801 92.2482 78.4498 92.8256 79.3981 93.315C80.088 80.539 81.1792 75.0499 76.6812 61.9394C76.0865 60.2066 75.3704 56.8355 74.2977 55.4157ZM107.225 124.275C114.92 124.774 117.71 128.927 124.398 133.189C125.417 133.838 124.334 135.615 123.853 136.097C121.198 138.753 115.569 135.869 112.474 133.216C109.364 130.549 106.779 129.457 102.708 130.236C97.6572 131.629 94.7593 135.906 90.2215 137.88C89.4185 138.23 88.6392 138.225 87.8404 137.827C86.7468 136.39 89.5226 133.489 91.3299 131.473C95.3487 126.992 100.103 123.813 107.225 124.275Z" fill="#371B04"/>
<path fill-rule="evenodd" clip-rule="evenodd" d="M147.554 356.545C95.1903 363.842 40.4232 345.422 6.94214 303.632C11.3996 298.856 15.9208 291.578 19.3145 285.932C33.9578 261.567 38.6094 232.84 43.4728 205.271C45.4761 193.475 47.7158 181.721 50.1906 170.016C53.2664 155.081 58.1156 128.333 70.4695 118.538C71.7088 117.64 72.7244 116.901 74.0483 116.107L74.3888 116.172C75.699 115.648 75.1025 115.621 76.2348 115.942C77.0943 117.432 76.5872 118.004 75.9818 119.591C74.1209 124.632 71.3802 129.315 69.7742 134.457C68.427 138.769 63.388 158.266 62.3546 163.79C60.5104 173.646 59.8961 183.725 59.2579 193.721C58.8936 199.431 57.8209 205.609 59.0621 211.164C64.978 237.643 96.4994 246.27 100.965 246.67C101.499 246.723 102.037 246.699 102.564 246.599C103.591 245.77 103.187 245.274 102.778 244.083L103.414 243.579C106.391 253.274 111.31 260.871 117.744 268.561C118.621 269.61 119.725 270.91 120.5 272.02C78.6064 258.972 66.4061 243.449 59.721 230.763C51.14 214.48 52.3788 199.088 53.6706 181.327L53.4301 181.316C53.3547 181.546 53.2835 181.779 53.2164 182.013C46.9397 204.081 48.6315 230.783 57.4691 243.265C76.5145 270.163 132.706 291.881 138.813 295.21C138.37 299.396 135.948 307.619 136.265 312.369C137.549 331.547 138.866 336.51 142.981 347.889C143.863 350.326 146.925 356.573 147.554 356.545Z" fill="#7D5028"/>
<path fill-rule="evenodd" clip-rule="evenodd" d="M169.031 186.759C180.242 185.147 191.636 188.015 200.749 194.741C205.594 198.375 209.653 203.477 212.401 208.855C218.015 217.41 217.597 229.517 215.937 239.169C214.301 248.676 207.246 258.15 199.12 263.293C178.154 276.562 147.022 270.811 128.655 255.456C126.237 253.434 123.684 249.213 121.858 246.638C121.098 245.565 118.668 241.766 120.221 240.9C121.864 241.116 122.806 241.883 124.056 241.668C124.452 241.174 124.648 240.837 124.412 240.113C122.467 234.156 109.516 236.982 111.497 243.48C113.277 245.307 114.175 244.224 115.838 243.201C122.882 260.083 135.575 269.898 153.357 274.199C165.903 277.233 176.053 276.145 188.452 274.283C179.469 283.35 171.03 288.886 157.771 289.056C146.338 289.202 136.822 285.396 127.908 278.342C126.346 277.105 121.607 272.753 120.5 272.02C119.725 270.91 118.621 269.61 117.744 268.561C111.31 260.871 106.391 253.274 103.414 243.579C102.662 237.634 103.573 231.491 108.162 227.238C111.721 223.94 116.011 223.038 120.125 220.708L120.571 220.453C121.571 220.613 124.772 220.523 125.965 220.513C133.057 203.943 142.749 196.392 158.844 189.23C162.181 187.941 165.512 187.281 169.031 186.759ZM206.559 233.641C209.976 231.413 212.385 229.135 212.667 224.771C212.872 221.598 211.201 217.599 207.502 217.687C204.558 217.756 202.728 219.992 200.909 221.984C195.496 228.643 199.465 237.24 206.559 233.641ZM155.005 228.319C157.492 231.401 161.782 233.644 165.75 233.94C172.873 234.638 175.601 233.502 174.397 225.999C172.488 214.112 156.742 210.158 153.014 222.654C152.41 224.677 153.855 226.873 155.005 228.319Z" fill="#E8BC80"/>
<path fill-rule="evenodd" clip-rule="evenodd" d="M155.006 228.319C153.855 226.873 152.41 224.676 153.014 222.654C156.743 210.158 172.488 214.112 174.397 225.999C175.601 233.502 172.874 234.638 165.75 233.94C165.674 232.68 166.524 230.166 166.312 229.398C165.559 226.675 160.866 222.482 157.809 223.426C155.647 224.094 156.27 226.839 155.006 228.319Z" fill="#371B04"/>
<path fill-rule="evenodd" clip-rule="evenodd" d="M165.75 233.94C161.782 233.644 157.492 231.401 155.005 228.319C156.27 226.839 155.647 224.094 157.809 223.426C160.865 222.482 165.559 226.675 166.312 229.398C166.524 230.166 165.674 232.68 165.75 233.94Z" fill="#7F4E27"/>
<path fill-rule="evenodd" clip-rule="evenodd" d="M200.909 221.984C202.728 219.992 204.558 217.756 207.502 217.687C211.201 217.599 212.872 221.598 212.667 224.771C212.385 229.135 209.976 231.413 206.559 233.641C204.692 229.583 209.888 225.35 202.979 222.765L200.909 221.984Z" fill="#371B04"/>
<path fill-rule="evenodd" clip-rule="evenodd" d="M206.559 233.641C199.465 237.24 195.496 228.643 200.909 221.984L202.979 222.765C209.888 225.35 204.692 229.583 206.559 233.641Z" fill="#7F4E27"/>
<path fill-rule="evenodd" clip-rule="evenodd" d="M156.868 99.8089C161.399 101.467 159.346 100.78 161.017 101.057C159.346 100.78 159.018 99.6809 156.868 99.8089Z" fill="#8C5A2E"/>
<path fill-rule="evenodd" clip-rule="evenodd" d="M161.017 101.057C161.848 98.5136 164.671 96.3795 166.698 94.5621C188.804 73.6123 192.138 40.514 181.676 13.1674C181.182 11.8762 180.598 10.7952 179.297 10.2279C178.483 10.1939 177.97 10.4773 177.308 10.9089C168.101 16.9141 152.769 52.0589 150.278 63.0276C149.726 65.4581 148.986 69.5382 150.717 71.6247C151.228 72.2402 151.512 72.1979 152.23 72.1819C153.212 71.5306 153.016 71.3419 153.739 70.4204C161.802 60.1595 165.058 47.861 169.789 36.206C169.173 51.0737 156.148 72.0051 155.654 74.1844C157.085 76.2941 156.653 76.8489 156.056 79.1455C155.078 79.9545 155.11 79.7324 154.956 81.3266L157.438 82.0457C158.671 83.0904 159.799 83.4803 161.098 84.7977C161.903 85.6156 162.971 86.9812 163.691 87.6229L163.801 87.8306C162.582 93.2525 156.884 94.7913 152.063 95.4074C153.626 96.8861 155.216 98.4403 156.868 99.8089C159.018 99.6809 159.346 100.78 161.017 101.057Z" fill="#8C5A2E"/>
</svg>
