<svg width="350" height="497" viewBox="0 0 350 497" fill="none" xmlns="http://www.w3.org/2000/svg">
<path fill-rule="evenodd" clip-rule="evenodd" d="M9.57378 178.505C11.9282 169.536 15.1595 160.799 19.2246 152.41C23.7734 156.646 23.924 156.793 24.7095 164.523C31.2155 159.267 36.622 161.664 37.8294 169.797C42.9366 169.984 59.1699 173.567 61.5873 178.076C57.1827 178.477 49.6939 178.274 45.0501 178.338C33.2251 178.501 21.3994 178.56 9.57378 178.505Z" fill="white"/>
<path d="M74.0541 432.234C75.3591 432.234 76.5009 432.421 77.4796 432.796C78.4583 433.17 79.3101 433.817 80.0351 434.735V425.637L80.6875 425.02H85.6536L86.3061 425.637V451.264L85.6536 451.917H80.6875L80.0351 451.264V449.597C79.3101 450.515 78.4401 451.18 77.4252 451.59C76.4102 452.001 75.2503 452.207 73.9454 452.207C72.5921 452.207 71.3657 451.971 70.2662 451.5C69.1881 451.044 68.223 450.357 67.4388 449.488C66.6534 448.618 66.0432 447.573 65.6083 446.353C65.1733 445.132 64.9557 443.773 64.9557 442.275C64.9557 440.704 65.1733 439.296 65.6083 438.052C66.0432 436.807 66.6594 435.756 67.4569 434.898C68.2543 434.04 69.2149 433.381 70.3386 432.922C71.4623 432.463 72.7009 432.234 74.0541 432.234ZM76.0478 437.2C74.5254 437.2 73.3412 437.647 72.4954 438.541C71.6496 439.435 71.2267 440.631 71.2267 442.13C71.2267 443.676 71.6496 444.897 72.4954 445.791C73.3412 446.685 74.5254 447.132 76.0478 447.132C76.9178 447.132 77.6971 446.939 78.3858 446.552C79.0745 446.165 79.6243 445.658 80.0351 445.029V439.338C79.6243 438.661 79.0504 438.136 78.3133 437.762C77.5763 437.387 76.8211 437.2 76.0478 437.2ZM99.7905 432.161C101.385 432.161 102.835 432.397 104.14 432.868C105.445 433.339 106.569 434.01 107.511 434.88C108.454 435.75 109.179 436.801 109.686 438.033C110.194 439.266 110.448 440.631 110.448 442.13C110.448 443.628 110.194 444.993 109.686 446.226C109.179 447.458 108.454 448.509 107.511 449.379C106.569 450.249 105.445 450.926 104.14 451.409C102.835 451.892 101.385 452.134 99.7905 452.134C98.1955 452.134 96.7395 451.892 95.4225 451.409C94.1055 450.926 92.9758 450.249 92.0333 449.379C91.0909 448.509 90.3659 447.458 89.8584 446.226C89.3509 444.993 89.0972 443.628 89.0972 442.13C89.0972 440.631 89.3509 439.266 89.8584 438.033C90.3659 436.801 91.0909 435.75 92.0333 434.88C92.9758 434.01 94.1055 433.339 95.4225 432.868C96.7395 432.397 98.1955 432.161 99.7905 432.161ZM99.7905 437.127C98.4855 437.127 97.4283 437.592 96.6187 438.523C95.8092 439.453 95.4044 440.68 95.4044 442.202C95.4044 443.724 95.8092 444.951 96.6187 445.881C97.4283 446.812 98.4855 447.277 99.7905 447.277C101.095 447.277 102.147 446.812 102.944 445.881C103.742 444.951 104.14 443.724 104.14 442.202C104.14 440.68 103.742 439.453 102.944 438.523C102.147 437.592 101.095 437.127 99.7905 437.127ZM126.433 432.125C127.521 432.125 128.499 432.3 129.369 432.651C130.217 432.986 130.983 433.499 131.617 434.155C132.245 434.807 132.728 435.599 133.067 436.529C133.405 437.46 133.574 438.493 133.574 439.628V451.264L132.921 451.917H127.919L127.303 451.264L127.339 441.042C127.339 439.81 127.031 438.885 126.415 438.269C125.799 437.653 124.959 437.345 123.896 437.345C123.122 437.345 122.367 437.496 121.63 437.798C120.893 438.1 120.319 438.468 119.908 438.903V451.264L119.256 451.917H114.254L113.637 451.264V433.031L114.254 432.379H119.256L119.908 433.031V434.952C120.537 434.107 121.419 433.43 122.554 432.922C123.69 432.415 124.983 432.149 126.433 432.125ZM152.278 440.861L158.73 451.264L158.078 451.917H152.206L151.626 451.482L148.218 445.646L144.63 449.995V451.264L143.977 451.917H139.011L138.359 451.264V425.637L139.011 425.02H143.977L144.63 425.637V441.876L151.662 432.705L152.206 432.379H158.078L158.73 433.031L152.278 440.861ZM178.196 451.01C177.761 451.18 177.265 451.337 176.71 451.482C176.147 451.628 175.579 451.749 175.006 451.844C174.423 451.941 173.837 452.014 173.248 452.062C172.699 452.108 172.149 452.132 171.599 452.134C169.641 452.134 167.968 451.941 166.578 451.554C165.189 451.167 164.047 450.575 163.153 449.778C162.259 448.981 161.6 447.953 161.177 446.697C160.754 445.44 160.543 443.942 160.543 442.202C160.543 440.631 160.784 439.224 161.268 437.979C161.751 436.735 162.434 435.684 163.316 434.825C164.198 433.967 165.273 433.309 166.542 432.85C167.811 432.391 169.23 432.162 170.801 432.161C172.71 432.161 174.299 432.475 175.568 433.104C176.836 433.732 177.815 434.566 178.504 435.605C179.193 436.644 179.609 437.841 179.754 439.193C179.899 440.546 179.791 441.96 179.428 443.434L178.739 443.833H166.777C166.826 444.945 167.273 445.76 168.119 446.28C168.964 446.8 170.342 447.059 172.251 447.059C173.266 447.059 174.347 446.951 175.495 446.733C176.643 446.516 177.652 446.238 178.522 445.899L179.029 446.334L178.703 450.43L178.196 451.01ZM170.801 437.127C170.124 437.127 169.532 437.224 169.025 437.417C168.517 437.611 168.101 437.858 167.774 438.16C167.455 438.454 167.202 438.812 167.031 439.212C166.863 439.607 166.776 440.032 166.777 440.462H173.701C173.894 439.544 173.773 438.758 173.339 438.106C172.904 437.454 172.058 437.127 170.801 437.127ZM202.99 432.995V449.307C202.99 450.974 202.724 452.424 202.192 453.657C201.661 454.889 200.893 455.916 199.89 456.738C198.888 457.559 197.673 458.176 196.247 458.586C194.822 458.997 193.215 459.203 191.426 459.203C190.097 459.203 188.798 459.088 187.53 458.858C186.261 458.629 185.168 458.296 184.249 457.861L183.742 457.245V453.077L184.213 452.678C184.648 452.944 185.137 453.179 185.681 453.385C186.225 453.59 186.799 453.765 187.403 453.91C188.007 454.055 188.617 454.164 189.233 454.237C189.85 454.309 190.436 454.345 190.991 454.345C192.731 454.345 194.121 453.94 195.16 453.131C196.199 452.322 196.719 451.107 196.719 449.488V447.494C196.09 448.34 195.208 449.017 194.073 449.524C192.937 450.032 191.644 450.298 190.194 450.322C189.106 450.322 188.128 450.146 187.258 449.796C186.41 449.46 185.644 448.948 185.01 448.292C184.382 447.639 183.899 446.848 183.561 445.918C183.222 444.987 183.053 443.954 183.053 442.818V432.995L183.706 432.379H188.672L189.324 432.995L189.288 441.078C189.288 442.311 189.596 443.235 190.212 443.851C190.828 444.468 191.668 444.776 192.731 444.776C193.505 444.776 194.26 444.625 194.997 444.323C195.734 444.021 196.308 443.652 196.719 443.217V432.995L197.371 432.379H202.337L202.99 432.995ZM242.537 451.228L241.848 451.917H236.411L235.758 451.228L234.091 446.987L223.071 446.951L221.331 451.337L220.751 451.917H215.35L214.807 451.337L224.847 427.014L225.427 426.543H232.097L232.677 426.978L242.537 451.228ZM232.315 442.347L228.943 432.705H228.182L224.811 442.347H232.315ZM251.599 427.195V451.264L250.946 451.917H245.763L245.147 451.264V427.195L245.763 426.543H250.946L251.599 427.195Z" fill="#371B04"/>
<path d="M92.3353 463.652V466.226L91.6829 466.879H84.2882L84.2519 487.758L83.6357 488.374H80.6271L80.0108 487.758V466.879H72.6162L72 466.226V463.652L72.6162 463H91.6829L92.3353 463.652ZM123.581 471.663C123.581 473.717 123.128 475.439 122.222 476.829C121.316 478.218 120.017 479.239 118.325 479.892L124.161 487.721L123.509 488.374H119.34L113.903 480.689C113.711 480.714 113.517 480.726 113.323 480.725H107.342V487.721L106.69 488.374H103.717L103.065 487.721V463.652L103.717 463H113.359C116.622 463 119.141 463.749 120.917 465.247C122.693 466.746 123.581 468.884 123.581 471.663ZM113.359 476.883C115.317 476.883 116.833 476.466 117.909 475.633C118.984 474.799 119.522 473.512 119.522 471.772C119.522 470.105 118.984 468.866 117.909 468.057C116.833 467.247 115.317 466.842 113.359 466.842H107.342V476.883H113.359ZM159.649 487.721L158.996 488.374H155.553L155.081 487.939L152.87 482.792H139.748L137.61 487.866L137.175 488.374H133.767L133.151 487.721L143.627 463.435L144.207 463H148.738L149.209 463.362L159.649 487.721ZM151.348 479.203L146.672 467.459H145.983L141.234 479.167L151.348 479.203ZM175.272 487.975L165.593 463.652L166.246 463H169.581L170.306 463.58L177.483 483.879H178.099L185.385 463.58L186.11 463H189.3L189.916 463.652L180.056 488.011L179.513 488.374H175.815L175.272 487.975ZM206.228 466.842V473.693H214.71L215.326 474.346V476.811L214.71 477.427H206.228V484.532H219.422L220.075 485.184V487.758L219.422 488.374H202.567L201.95 487.758V463.652L202.567 463H219.422L220.075 463.652V466.226L219.422 466.842H206.228ZM248.638 485.148V487.758L247.986 488.374H233.994L233.378 487.758V463.652L233.994 463H237.003L237.655 463.652V484.495H247.986L248.638 485.148Z" fill="#5AA0BA"/>
<path d="M40.9002 380.884C43.4704 380.884 45.7193 381.253 47.647 381.99C49.5746 382.727 51.2524 384.001 52.6803 385.81V367.89L53.9653 366.676H63.7465L65.0316 367.89V418.366L63.7465 419.651H53.9653L52.6803 418.366V415.082C51.2524 416.89 49.5388 418.199 47.5398 419.009C45.5407 419.819 43.2562 420.223 40.686 420.222C38.0205 420.222 35.6049 419.758 33.4393 418.83C31.3159 417.932 29.4151 416.579 27.8705 414.868C26.3236 413.154 25.1217 411.096 24.265 408.692C23.4083 406.288 22.9799 403.611 22.9799 400.66C22.9799 397.566 23.4083 394.794 24.265 392.343C25.1217 389.891 26.3355 387.821 27.9062 386.131C29.4769 384.441 31.3689 383.144 33.5821 382.24C35.7954 381.336 38.2347 380.884 40.9002 380.884ZM44.8268 390.665C41.8282 390.665 39.496 391.545 37.8301 393.306C36.1642 395.068 35.3313 397.424 35.3313 400.375C35.3313 403.42 36.1642 405.824 37.8301 407.585C39.496 409.347 41.8282 410.227 44.8268 410.227C46.5403 410.227 48.0753 409.846 49.4318 409.085C50.7883 408.323 51.8711 407.324 52.6803 406.086V394.877C51.8711 393.544 50.7407 392.509 49.289 391.772C47.8373 391.034 46.3499 390.665 44.8268 390.665ZM91.5905 380.741C94.7319 380.741 97.5878 381.205 100.158 382.133C102.728 383.061 104.941 384.382 106.798 386.096C108.654 387.809 110.082 389.88 111.081 392.307C112.081 394.734 112.581 397.424 112.581 400.375C112.581 403.326 112.081 406.015 111.081 408.442C110.082 410.87 108.654 412.94 106.798 414.654C104.941 416.367 102.728 417.7 100.158 418.652C97.5878 419.604 94.7319 420.08 91.5905 420.08C88.4492 420.08 85.5814 419.604 82.9874 418.652C80.3934 417.7 78.1682 416.367 76.312 414.654C74.4557 412.94 73.0278 410.87 72.0283 408.442C71.0288 406.015 70.529 403.326 70.529 400.375C70.529 397.424 71.0288 394.734 72.0283 392.307C73.0278 389.88 74.4557 387.809 76.312 386.096C78.1682 384.382 80.3934 383.061 82.9874 382.133C85.5814 381.205 88.4492 380.741 91.5905 380.741ZM91.5905 390.522C89.0203 390.522 86.938 391.438 85.3435 393.271C83.749 395.103 82.9517 397.519 82.9517 400.517C82.9517 403.516 83.749 405.932 85.3435 407.764C86.938 409.596 89.0203 410.513 91.5905 410.513C94.1608 410.513 96.2312 409.596 97.8019 407.764C99.3726 405.932 100.158 403.516 100.158 400.517C100.158 397.518 99.3726 395.103 97.8019 393.271C96.2312 391.439 94.1608 390.523 91.5905 390.522ZM144.066 380.67C146.208 380.67 148.135 381.015 149.849 381.705C151.519 382.366 153.028 383.376 154.275 384.668C155.513 385.953 156.465 387.512 157.131 389.344C157.797 391.176 158.131 393.211 158.131 395.448V418.366L156.846 419.651H146.993L145.779 418.366L145.851 398.233C145.851 395.805 145.244 393.985 144.03 392.771C142.817 391.557 141.163 390.95 139.068 390.95C137.545 390.95 136.058 391.248 134.606 391.843C133.154 392.438 132.024 393.164 131.215 394.02V418.366L129.93 419.651H120.077L118.863 418.366V382.454L120.077 381.169H129.93L131.215 382.454V386.238C132.452 384.573 134.19 383.24 136.427 382.24C138.664 381.24 141.21 380.716 144.066 380.67ZM194.97 397.876L207.679 418.366L206.394 419.651H194.828L193.685 418.795L186.974 407.3L179.906 415.867V418.366L178.621 419.651H168.84L167.555 418.366V367.89L168.84 366.676H178.621L179.906 367.89V399.875L193.757 381.812L194.828 381.169H206.394L207.679 382.454L194.97 397.876ZM246.018 417.866C245.161 418.199 244.185 418.508 243.091 418.795C241.984 419.083 240.864 419.321 239.735 419.508C238.593 419.698 237.439 419.841 236.273 419.937C235.192 420.028 234.108 420.076 233.024 420.08C229.169 420.08 225.873 419.699 223.136 418.937C220.399 418.176 218.15 417.01 216.389 415.439C214.628 413.868 213.331 411.845 212.498 409.37C211.665 406.895 211.249 403.944 211.249 400.517C211.249 397.424 211.724 394.651 212.676 392.2C213.628 389.749 214.973 387.678 216.71 385.989C218.448 384.298 220.566 383.001 223.064 382.098C225.563 381.193 228.36 380.741 231.453 380.741C235.213 380.741 238.343 381.36 240.842 382.597C243.341 383.835 245.268 385.477 246.625 387.524C247.981 389.57 248.802 391.926 249.088 394.592C249.373 397.256 249.159 400.041 248.445 402.945L247.089 403.73H223.528C223.624 405.919 224.504 407.525 226.17 408.549C227.836 409.573 230.549 410.084 234.309 410.084C236.308 410.084 238.438 409.87 240.699 409.442C242.96 409.013 244.947 408.466 246.661 407.8L247.66 408.656L247.017 416.724L246.018 417.866ZM231.453 390.522C230.121 390.522 228.954 390.712 227.955 391.093C226.955 391.473 226.134 391.961 225.492 392.557C224.863 393.135 224.364 393.841 224.028 394.627C223.697 395.406 223.526 396.244 223.528 397.09H237.165C237.546 395.281 237.308 393.734 236.451 392.45C235.594 391.165 233.928 390.523 231.453 390.522ZM294.852 382.383V414.511C294.852 417.795 294.329 420.651 293.281 423.078C292.234 425.506 290.723 427.528 288.748 429.147C286.773 430.765 284.381 431.979 281.573 432.788C278.764 433.597 275.599 434.002 272.077 434.002C269.459 434.002 266.901 433.776 264.402 433.323C261.903 432.87 259.75 432.216 257.941 431.36L256.941 430.146V421.936L257.87 421.151C258.726 421.673 259.69 422.137 260.761 422.543C261.832 422.947 262.962 423.292 264.152 423.578C265.342 423.864 266.544 424.078 267.758 424.221C268.971 424.363 270.126 424.435 271.22 424.435C274.647 424.435 277.384 423.637 279.431 422.043C281.477 420.448 282.501 418.057 282.501 414.868V410.941C281.263 412.607 279.526 413.94 277.289 414.939C275.052 415.939 272.505 416.462 269.65 416.51C267.508 416.51 265.58 416.165 263.867 415.475C262.197 414.814 260.688 413.803 259.44 412.512C258.203 411.226 257.251 409.667 256.584 407.835C255.918 406.002 255.585 403.967 255.585 401.731V382.383L256.87 381.169H266.651L267.936 382.383L267.865 398.304C267.865 400.732 268.472 402.552 269.685 403.766C270.899 404.98 272.553 405.586 274.647 405.586C276.17 405.586 277.658 405.289 279.109 404.694C280.561 404.099 281.692 403.373 282.501 402.516V382.383L283.786 381.169H293.567L294.852 382.383Z" fill="#371B04"/>
<path fill-rule="evenodd" clip-rule="evenodd" d="M7.67083 172.995C10.0253 164.025 13.2565 155.288 17.3217 146.899C21.8704 151.135 22.021 151.282 22.8066 159.012C29.3126 153.756 34.7191 156.153 35.9265 164.286C41.0336 164.473 57.267 168.056 59.6843 172.565C55.2798 172.966 47.791 172.764 43.1471 172.827C31.3221 172.99 19.4965 173.05 7.67083 172.995Z" fill="white"/>
<path fill-rule="evenodd" clip-rule="evenodd" d="M72.8979 85.1748C97.35 69.74 126.625 60.7541 158.074 60.7541C180.22 60.7541 201.287 65.2098 220.352 73.2355C215.858 83.8522 211.995 90.4624 205.542 100.01C208.569 103.015 211.207 105.807 213.356 109.639C221.088 123.422 220.747 141.403 221.204 156.87C221.329 161.126 220.71 164.768 220.565 168.807C220.356 174.578 225.422 179.749 229.087 183.59C230.325 184.886 235.962 189.837 237.574 190.508C240.567 188.936 290.88 165.161 304.17 159.398C304.819 161.141 305.434 162.895 306.015 164.66C298 167.539 287.697 172.488 279.97 176.032C279.97 176.032 253.118 187.948 240.844 194.097C255.605 212.122 253.205 222.957 253.958 234.95C257.541 234.242 260.042 234.929 263.187 236.421C264.176 227.905 269.47 221.441 278.962 225.277C280.616 225.945 282.071 227.453 283.412 228.664C287.558 214.723 300.224 207.555 312.948 216.832C312.437 226.661 310.904 236.417 308.373 245.954C301.982 246.211 296.702 245.704 290.333 245.633L252.008 245.325C248.378 254.189 244.892 260.332 236.6 265.74C234.93 266.83 230.857 268.96 229.807 270.297C228.365 272.135 226.922 275.781 225.48 277.933C220.71 285.056 213.441 289.995 205.727 293.295C196.503 297.241 188.776 297.401 179.045 297.384C175.295 319.466 176.338 334.788 187.008 355.215C177.469 356.939 167.782 357.804 158.074 357.8C91.8288 357.8 35.2295 317.929 13.032 261.896C22.5079 254.434 29.5755 257.037 34.3777 267.604C38.6016 264.639 43.5205 263.569 46.2697 268.947C51.5032 258.771 53.9728 251.95 56.3902 240.773C54.0424 240.792 50.7852 240.898 48.9077 239.485C47.3379 236.839 50.9237 233.075 51.6863 230.309C54.4112 220.425 56.4622 210.13 58.6486 200.137C55.8254 202.272 49.5236 206.137 48.6959 200.74C47.4988 192.929 56.5452 178.692 60.2509 172.47C61.8999 169.318 63.2057 166.381 64.653 163.133C42.354 171.898 71.0951 131.145 73.8635 127.384C77.6917 122.184 82.7759 116.201 86.3291 110.965C83.5614 105.697 80.3643 100.977 77.469 95.8404C75.7549 92.799 74.2125 88.7192 72.8979 85.1748ZM312.874 200.415C313.051 203.29 313.142 206.185 313.146 209.102C313.111 206.205 313.021 203.309 312.874 200.415ZM6.67917 241.545C4.27205 231.155 3.00277 220.357 3.00277 209.277C3.20188 220.172 4.34289 230.966 6.67917 241.545Z" fill="white"/>
<path fill-rule="evenodd" clip-rule="evenodd" d="M37.3293 303.632C34.8765 300.738 32.5599 297.731 30.3871 294.622C32.3766 291.208 35.4405 287.758 37.6817 284.424C40.9992 279.49 43.756 274.32 46.2669 268.947C51.5 258.771 53.9698 251.95 56.3873 240.773C54.0395 240.792 50.7821 240.898 48.9046 239.485C47.3348 236.839 50.9208 233.075 51.6834 230.309C54.408 220.425 56.4593 210.13 58.6458 200.137C55.8224 202.272 49.5207 206.138 48.6933 200.74C47.4961 192.928 56.5421 178.692 60.2477 172.47C61.8972 169.318 63.2027 166.381 64.6498 163.133C42.3511 171.898 71.0919 131.145 73.8606 127.384C77.6883 122.184 82.7732 116.201 86.3258 110.965C83.5583 105.697 80.3611 100.977 77.4662 95.8407C75.4589 92.2792 73.6868 87.2937 72.2408 83.4119C71.6448 81.703 71.1156 79.9716 70.6544 78.2216C64.9189 56.8676 67.7185 31.6842 78.5961 12.3804C89.7969 -6.93055 99.0511 0.225934 108.872 14.9627C119.534 30.9621 123.696 43.2279 127.814 61.7769C128.274 63.9128 128.702 66.0557 129.096 68.2048L131.161 65.5177C132.451 64.0955 133.788 62.4478 135.038 60.9691C138.179 57.9659 147.911 48.1973 152.58 51.2476C155.023 50.3285 156.516 51.0225 155.317 54.021C153.755 57.9248 152.778 59.7875 150.292 63.1901C154.519 61.5138 163.852 57.1784 168.438 58.8624C169.469 59.2416 170.221 60.4613 170.778 61.365C170.806 61.9091 170.835 62.2942 170.814 62.8395C169.962 63.5949 167.132 66.8684 166.203 67.8738C168.585 67.9869 170.222 68.0018 172.601 67.8958L172.951 64.108C174.717 44.8322 181.354 30.93 192.774 15.4955C196.333 10.6844 199.586 6.38651 204.033 2.30287C208.122 -1.45157 213.152 -0.447926 216.166 4.09765C225.223 17.757 227.062 37.0947 225.437 53.1108C224.902 57.6332 222.215 69.2763 220.482 72.9212C215.931 83.7226 212.055 90.3683 205.539 100.01C208.565 103.015 211.204 105.807 213.353 109.639C221.084 123.421 220.744 141.403 221.2 156.87C221.326 161.126 220.707 164.768 220.561 168.807C220.353 174.578 226.014 180.344 229.679 184.185C230.916 185.482 235.958 189.242 237.571 190.508C256.275 209.419 253.202 226.528 253.954 234.95C253.745 238.477 253.09 241.964 252.004 245.326C248.374 254.189 244.889 260.331 236.596 265.74C234.927 266.83 230.854 268.96 229.804 270.298C228.362 272.135 226.918 275.781 225.477 277.933C220.707 285.056 213.437 289.995 205.723 293.295C196.5 297.24 188.773 297.401 179.042 297.384C175.288 319.487 176.336 334.817 187.036 355.274C184 355.671 180.969 356.095 177.941 356.545C177.034 356.68 174.338 350.293 173.369 347.889C168.063 334.724 167.128 324.444 166.653 312.369C166.489 308.224 168.162 299.396 168.605 295.21C162.498 291.881 106.902 270.163 87.8563 243.265C79.0187 230.783 77.3269 204.081 83.6036 182.013C83.6706 181.779 83.7419 181.546 83.8173 181.316L84.0578 181.327C82.766 199.088 81.5272 214.48 90.1082 230.763C96.7932 243.449 108.994 258.972 150.887 272.02C151.994 272.753 156.733 277.105 158.295 278.342C167.209 285.396 176.725 289.201 188.158 289.056C201.418 288.886 209.856 283.35 218.839 274.283C206.44 276.145 196.291 277.233 183.744 274.199C165.962 269.898 153.269 260.083 146.225 243.2C144.562 244.224 143.664 245.307 141.885 243.48C139.903 236.982 152.855 234.156 154.799 240.113C155.036 240.837 154.839 241.174 154.443 241.668C153.193 241.883 152.251 241.116 150.608 240.9C149.055 241.766 151.485 245.565 152.246 246.638C154.071 249.213 156.624 253.434 159.042 255.456C177.409 270.811 208.541 276.562 229.507 263.293C237.633 258.15 244.688 248.676 246.324 239.169C247.984 229.517 248.403 217.41 242.789 208.855C240.04 203.477 235.982 198.375 231.136 194.741C222.024 188.015 210.629 185.147 199.419 186.759C195.899 187.281 192.568 187.941 189.232 189.23L188.763 188.838L188.97 188.397C198.769 182.992 213.016 181.98 223.799 184.731C219.38 179.774 213.755 172.262 213.597 165.311C213.597 165.311 215.478 125.03 203.344 127.732C201.272 128.194 195.123 134.251 193.513 131.739C193.426 130.449 193.736 129.462 194.318 128.213C195.542 125.586 198.035 120.733 200.877 119.748C202.366 119.232 205.133 120.768 206.491 121.45C203.987 115.282 196.846 105 191.404 101.057C192.235 98.5136 195.058 96.3795 197.085 94.5621C219.191 73.6123 222.525 40.514 212.063 13.1674C211.569 11.8762 210.985 10.7952 209.684 10.2279C208.87 10.1939 208.357 10.4773 207.695 10.9089C198.488 16.9141 183.156 52.0589 180.665 63.0276C180.113 65.4581 179.373 69.5382 181.104 71.6247C181.615 72.2402 181.899 72.1979 182.617 72.1819C183.599 71.5306 183.403 71.3419 184.127 70.4204C192.189 60.1595 195.445 47.861 200.176 36.206C199.56 51.0737 186.535 72.0051 186.041 74.1844C187.472 76.2941 187.04 76.8489 186.443 79.1455C185.465 79.9545 185.497 79.7324 185.343 81.3266L187.825 82.0457C189.058 83.0904 190.186 83.4803 191.485 84.7977C192.29 85.6156 193.358 86.9812 194.078 87.6229L194.189 87.8306C192.969 93.2525 187.271 94.7913 182.45 95.4074C184.013 96.8861 185.603 98.4403 187.255 99.8089C187.836 100.849 188.449 101.914 188.997 102.97C191.139 107.098 188.938 107.879 182.881 106.957C177.155 106.086 175.145 105.235 169.994 102.484C171.589 105.157 174.623 109.698 175.144 112.662C176.019 117.644 166.948 115.256 164.644 114.065C160.134 111.734 156.659 108.529 152.811 105.222C153.461 106.868 152.691 113.381 149.82 113.576C139.796 114.256 132.388 106.94 125.583 101.476C125.583 101.476 123.907 108.782 123.343 110.281C123.208 110.642 122.201 112.852 122.201 112.852L122.168 110.161C121.5 103.42 122.065 96.7218 121.918 89.985C121.461 68.9477 118.511 47.2443 107.293 28.9888C104.246 24.0307 94.8741 4.39351 87.9944 15.3223C77.9686 31.2491 77.4525 52.2994 79.7086 70.4841C81.7493 83.5845 93.4978 101.104 101.797 111.049C102.603 112.015 105.036 115.042 104.435 116.107C103.112 116.901 102.096 117.64 100.857 118.538C88.5027 128.333 83.6536 155.081 80.5778 170.016C78.103 181.721 75.8633 193.475 73.86 205.271C68.9966 232.84 64.345 261.567 49.7017 285.932C46.308 291.578 41.7868 298.856 37.3293 303.632Z" fill="#371B04"/>
<path fill-rule="evenodd" clip-rule="evenodd" d="M131.352 246.67C131.886 246.723 132.424 246.699 132.951 246.599C132.662 246.655 132.105 246.679 131.352 246.67Z" fill="#371B04"/>
<path fill-rule="evenodd" clip-rule="evenodd" d="M189.232 189.23L188.763 188.838L188.97 188.397C198.769 182.992 213.016 181.98 223.799 184.731C219.38 179.774 213.755 172.262 213.597 165.311C213.597 165.311 217.859 124.435 203.344 127.732C201.274 128.203 195.123 134.251 193.513 131.739C193.426 130.449 193.736 129.462 194.318 128.213C195.542 125.586 198.035 120.733 200.877 119.748C202.366 119.232 205.133 120.768 206.491 121.45C203.987 115.282 196.846 105 191.404 101.057C189.733 100.78 191.786 101.467 187.255 99.8089C187.836 100.849 188.449 101.914 188.997 102.97C191.139 107.098 188.938 107.879 182.881 106.957C177.155 106.086 175.145 105.235 169.994 102.484C171.589 105.157 174.623 109.698 175.144 112.662C176.019 117.644 166.948 115.256 164.644 114.065C160.134 111.734 156.659 108.529 152.811 105.222C153.461 106.868 152.691 113.381 149.82 113.576C139.796 114.256 132.388 106.94 125.583 101.476C125.583 101.476 123.907 108.782 123.343 110.281C123.208 110.642 122.201 112.852 122.201 112.852L122.168 110.161C121.5 103.42 122.065 96.7218 121.918 89.985C121.461 68.9477 118.511 47.2443 107.293 28.9888C104.246 24.0307 94.8741 4.39351 87.9944 15.3223C77.9686 31.2491 77.4525 52.2994 79.7086 70.4841C81.7493 83.5845 93.4978 101.104 101.797 111.049C102.603 112.015 105.036 115.042 104.435 116.107L104.776 116.172C106.086 115.648 105.49 115.621 106.622 115.942C107.482 117.432 106.974 118.004 106.369 119.591C104.508 124.632 101.767 129.315 100.161 134.457C98.8142 138.769 93.7752 158.266 92.7418 163.79C90.8976 173.647 90.2832 183.725 89.6451 193.721C89.2808 199.431 88.0902 199.684 88.854 208.188C91.2934 235.346 107.072 241.954 113.261 244.117C115.733 244.982 119.753 245.654 123.536 246.092C124.958 246.167 130.228 246.57 131.352 246.67C132.105 246.679 132.662 246.655 132.951 246.599C133.978 245.77 133.575 245.274 133.166 244.083C132.509 243.046 131.923 242.116 131.436 240.977C129.805 237.164 129.773 232.853 131.376 229.029C132.162 227.155 133.321 225.461 134.783 224.05C136.244 222.638 137.977 221.538 139.877 220.817C143.005 219.628 147.866 219.119 150.958 220.453C151.958 220.613 155.159 220.523 156.352 220.512C163.444 203.943 173.136 196.392 189.232 189.23ZM106.78 91.5726C108.089 89.8201 107.079 87.9247 106.389 86.1085C104.298 83.7047 98.6047 85.8817 92.3429 50.8392C90.3505 39.6878 96.2634 38.546 104.685 55.4157C102.891 50.6362 101.046 46.2918 99.6595 41.3635C113.389 52.8822 120.01 92.5602 109.926 107.245C107.361 103.801 101.66 91.8541 100.168 87.6235C102.291 88.9599 104.552 90.4582 106.78 91.5726ZM124.533 178.116L123.564 177.85C122.746 175.937 121.703 172.387 121.612 169.787C121.326 161.544 123.323 150.419 132.327 147.383C142.092 144.091 151.15 151.953 153.814 160.943C154.649 163.759 155.657 169.359 154.297 171.997L153.61 170.534C154.02 193.356 135.874 199.612 124.533 178.116Z" fill="#A06838"/>
<path fill-rule="evenodd" clip-rule="evenodd" d="M210.374 146.445C203.101 137.456 197.122 149.691 196.673 158.616C196.381 164.42 196.275 171.152 200.074 175.873C200.424 176.309 201.529 177.018 202.061 176.91C205.127 176.285 207.675 175.751 209.198 172.56C211.361 168.029 212.872 164.53 212.67 158.408C212.463 152.112 212.578 149.168 210.374 146.445Z" fill="#371B04"/>
<path fill-rule="evenodd" clip-rule="evenodd" d="M202.061 176.91C211.576 181.494 213.001 167.863 212.761 164.049C212.435 158.867 212.199 152.054 207.78 148.704C202.905 145.009 198.042 150.447 197.842 156.399C197.723 159.973 203.304 144.74 208.503 157.217C209.999 161.762 211.361 168.029 209.198 172.56C207.675 175.751 205.127 176.285 202.061 176.91Z" fill="#ECD2A3"/>
<path fill-rule="evenodd" clip-rule="evenodd" d="M202.728 155.202C202.208 155.426 201.781 155.822 201.518 156.324C201.255 156.826 201.173 157.403 201.285 157.959C201.397 158.514 201.696 159.014 202.133 159.375C202.57 159.736 203.118 159.936 203.685 159.941C204.052 159.944 204.416 159.865 204.749 159.71C205.083 159.555 205.377 159.327 205.611 159.043C205.845 158.76 206.013 158.428 206.102 158.071C206.192 157.714 206.201 157.342 206.128 156.982C206.055 156.621 205.903 156.282 205.682 155.988C205.462 155.694 205.178 155.452 204.852 155.282C204.527 155.111 204.167 155.016 203.799 155.002C203.432 154.988 203.066 155.056 202.728 155.202Z" fill="white"/>
<path fill-rule="evenodd" clip-rule="evenodd" d="M133.801 243.579L133.166 244.083C132.509 243.046 131.923 242.116 131.436 240.977C129.805 237.164 129.773 232.853 131.376 229.029C132.162 227.155 133.321 225.461 134.783 224.05C136.244 222.638 137.977 221.538 139.877 220.817C143.005 219.628 147.866 219.119 150.958 220.453L150.512 220.708C146.399 223.038 142.109 223.94 138.549 227.238C133.96 231.491 133.049 237.634 133.801 243.579Z" fill="#371B04"/>
<path fill-rule="evenodd" clip-rule="evenodd" d="M153.61 170.534C154.02 193.356 135.874 199.612 124.533 178.116C123.975 169.165 123.676 153.566 134.537 151.107C146.712 148.351 151.659 161.814 153.61 170.534ZM136.937 158.389C138.356 158.345 139.672 158.294 141.085 158.532C142.509 158.763 143.874 159.277 145.097 160.043C146.32 160.809 147.378 161.812 148.207 162.993C152.702 169.368 152.084 182.444 145.099 187.087C133.863 189.474 129.74 174.484 131.604 166.113C132.444 162.342 133.818 160.468 136.937 158.389Z" fill="#ECD2A3"/>
<path fill-rule="evenodd" clip-rule="evenodd" d="M124.533 178.116L123.564 177.85C122.746 176.532 121.703 172.387 121.612 169.787C121.326 161.544 123.323 150.419 132.327 147.383C142.092 144.091 151.15 151.953 153.814 160.943C154.649 163.759 155.657 169.359 154.297 171.997L153.61 170.534C151.659 161.814 146.712 148.351 134.537 151.107C123.676 153.566 123.975 169.165 124.533 178.116Z" fill="#371B04"/>
<path fill-rule="evenodd" clip-rule="evenodd" d="M136.937 158.389C142.523 155.369 146.531 160.607 148.207 162.993C152.702 169.368 152.084 182.444 145.099 187.087C135.054 191.856 129.74 174.484 131.604 166.113C132.444 162.342 133.818 160.468 136.937 158.389ZM141.408 159.75C144.647 160.332 146.711 161.518 144.375 164.884C140.495 164.983 139.061 163.245 141.408 159.75Z" fill="#371B04"/>
<path fill-rule="evenodd" clip-rule="evenodd" d="M141.408 159.75C144.051 158.546 147.306 162.708 144.375 164.884C140.495 166.769 138.12 161.247 141.408 159.75Z" fill="white"/>
<path fill-rule="evenodd" clip-rule="evenodd" d="M106.78 91.5726C108.089 89.8201 107.079 87.9247 106.389 86.1085C104.298 83.7047 98.6047 85.8817 92.3429 50.8392C90.3505 39.6878 96.2634 38.546 104.685 55.4157C105.758 56.8355 106.474 60.2066 107.068 61.9394C111.566 75.0499 110.475 80.539 109.785 93.315C108.837 92.8257 107.567 92.2482 106.78 91.5726Z" fill="#552F12"/>
<path fill-rule="evenodd" clip-rule="evenodd" d="M104.685 55.4157C102.891 50.6362 101.046 46.2918 99.6595 41.3635C113.388 52.8822 120.01 92.5601 109.926 107.245C107.361 103.801 101.66 91.8541 100.168 87.6235C102.291 88.9599 104.552 90.4582 106.78 91.5726C107.567 92.2482 108.837 92.8256 109.785 93.315C110.475 80.539 111.566 75.0499 107.068 61.9394C106.474 60.2066 105.758 56.8355 104.685 55.4157ZM137.612 124.275C145.307 124.774 148.097 128.927 154.786 133.189C155.804 133.838 154.721 135.615 154.24 136.097C151.585 138.753 145.956 135.869 142.861 133.216C139.751 130.549 137.166 129.457 133.095 130.236C128.044 131.629 125.146 135.906 120.609 137.88C119.806 138.23 119.026 138.225 118.228 137.827C117.134 136.39 119.91 133.489 121.717 131.473C125.736 126.992 130.49 123.813 137.612 124.275Z" fill="#371B04"/>
<path fill-rule="evenodd" clip-rule="evenodd" d="M177.941 356.545C125.578 363.842 70.8104 345.422 37.3293 303.632C41.7868 298.856 46.308 291.578 49.7017 285.932C64.345 261.567 68.9965 232.84 73.86 205.271C75.8633 193.475 78.103 181.721 80.5778 170.016C83.6536 155.081 88.5027 128.333 100.857 118.538C102.096 117.64 103.112 116.901 104.435 116.107L104.776 116.172C106.086 115.648 105.49 115.621 106.622 115.942C107.482 117.432 106.974 118.004 106.369 119.591C104.508 124.632 101.767 129.315 100.161 134.457C98.8142 138.769 93.7752 158.266 92.7417 163.79C90.8976 173.646 90.2832 183.725 89.6451 193.721C89.2808 199.431 88.2081 205.609 89.4492 211.164C95.3652 237.643 126.887 246.27 131.352 246.67C131.886 246.723 132.424 246.699 132.951 246.599C133.978 245.77 133.575 245.274 133.166 244.083L133.801 243.579C136.778 253.274 141.697 260.871 148.131 268.561C149.008 269.61 150.113 270.91 150.887 272.02C108.994 258.972 96.7932 243.449 90.1082 230.763C81.5272 214.48 82.766 199.088 84.0578 181.327L83.8173 181.316C83.7419 181.546 83.6706 181.779 83.6036 182.013C77.3269 204.081 79.0187 230.783 87.8563 243.265C106.902 270.163 163.093 291.881 169.2 295.21C168.757 299.396 166.335 307.619 166.653 312.369C167.937 331.547 169.253 336.51 173.369 347.889C174.25 350.326 177.312 356.573 177.941 356.545Z" fill="#7D5028"/>
<path fill-rule="evenodd" clip-rule="evenodd" d="M187.005 355.215C176.334 334.788 175.292 319.466 179.042 297.384C188.773 297.401 196.5 297.24 205.723 293.295C213.437 289.995 220.706 285.056 225.476 277.933C226.918 275.781 228.362 272.135 229.804 270.298C230.854 268.96 234.927 266.83 236.596 265.74C244.889 260.331 248.374 254.189 252.004 245.326L290.329 245.633C296.698 245.704 301.978 246.211 308.37 245.954C308.625 245.944 308.109 245.967 308.37 245.954C299.818 282.278 278.06 313.73 246.438 333.544C231.176 343.023 213.996 349.595 196.543 353.544C194.947 353.905 188.231 355.409 187.036 355.274L187.005 355.215Z" fill="#5499B9"/>
<path fill-rule="evenodd" clip-rule="evenodd" d="M199.419 186.759C210.629 185.147 222.024 188.015 231.136 194.741C235.981 198.375 240.04 203.477 242.789 208.855C248.403 217.411 247.984 229.517 246.324 239.169C244.688 248.676 237.633 258.15 229.507 263.293C208.541 276.562 177.409 270.812 159.042 255.456C156.624 253.434 154.071 249.213 152.246 246.638C151.485 245.565 149.055 241.767 150.608 240.9C152.251 241.116 153.193 241.883 154.443 241.668C154.839 241.174 155.036 240.837 154.799 240.113C152.855 234.156 139.903 236.982 141.885 243.48C143.664 245.307 144.562 244.224 146.225 243.201C153.269 260.083 165.962 269.898 183.744 274.199C196.29 277.233 206.44 276.145 218.839 274.283C209.856 283.35 201.418 288.886 188.158 289.056C176.725 289.202 167.209 285.397 158.295 278.342C156.733 277.105 151.994 272.753 150.887 272.02C150.113 270.91 149.008 269.61 148.131 268.561C141.697 260.871 136.778 253.274 133.801 243.579C133.049 237.634 133.96 231.491 138.549 227.238C142.108 223.94 146.399 223.038 150.512 220.708L150.958 220.453C151.958 220.613 155.159 220.523 156.352 220.513C163.444 203.943 173.136 196.392 189.232 189.23C192.568 187.941 195.899 187.282 199.419 186.759ZM236.946 233.641C240.363 231.413 242.772 229.135 243.054 224.771C243.259 221.598 241.588 217.599 237.889 217.687C234.946 217.756 233.115 219.992 231.297 221.984C225.883 228.643 229.852 237.24 236.946 233.641ZM185.393 228.319C187.879 231.401 192.169 233.644 196.137 233.94C203.261 234.638 205.988 233.502 204.784 225.999C202.875 214.112 187.13 210.158 183.401 222.654C182.797 224.677 184.242 226.873 185.393 228.319Z" fill="#E8BC80"/>
<path fill-rule="evenodd" clip-rule="evenodd" d="M185.393 228.319C184.242 226.873 182.797 224.676 183.401 222.654C187.13 210.158 202.875 214.112 204.784 225.999C205.988 233.502 203.261 234.638 196.138 233.94C196.061 232.68 196.911 230.166 196.699 229.398C195.946 226.675 191.253 222.482 188.196 223.426C186.034 224.094 186.657 226.839 185.393 228.319Z" fill="#371B04"/>
<path fill-rule="evenodd" clip-rule="evenodd" d="M196.138 233.94C192.169 233.644 187.879 231.401 185.393 228.319C186.657 226.839 186.034 224.094 188.196 223.426C191.253 222.482 195.946 226.675 196.699 229.398C196.911 230.166 196.061 232.68 196.138 233.94Z" fill="#7F4E27"/>
<path fill-rule="evenodd" clip-rule="evenodd" d="M231.297 221.984C233.115 219.992 234.946 217.756 237.889 217.687C241.588 217.599 243.259 221.598 243.054 224.771C242.772 229.135 240.363 231.413 236.946 233.641C235.079 229.583 240.275 225.35 233.366 222.765L231.297 221.984Z" fill="#371B04"/>
<path fill-rule="evenodd" clip-rule="evenodd" d="M236.946 233.641C229.852 237.24 225.883 228.643 231.297 221.984L233.366 222.765C240.275 225.35 235.079 229.583 236.946 233.641Z" fill="#7F4E27"/>
<path fill-rule="evenodd" clip-rule="evenodd" d="M3 209.277C3 196.763 4.61916 184.608 7.6682 172.995C19.4937 173.048 31.3195 172.992 43.1441 172.827C47.7878 172.764 55.2765 172.966 59.6816 172.565L60.2477 172.47C56.5421 178.692 47.4962 192.928 48.6933 200.74C49.5207 206.138 55.8224 202.272 58.6458 200.137C56.4593 210.13 54.408 220.425 51.6834 230.309C50.9208 233.075 47.3348 236.839 48.9046 239.485C50.7821 240.898 54.0395 240.792 56.3873 240.773C53.9698 251.95 51.5 258.771 46.2669 268.947C43.5173 263.569 38.5985 264.639 34.3749 267.604C29.5728 257.037 22.505 254.435 13.0287 261.897C10.4074 255.28 8.28402 248.477 6.67646 241.544C4.33998 230.966 3.19942 220.173 3 209.277Z" fill="#72B4C6"/>
<path fill-rule="evenodd" clip-rule="evenodd" d="M13.0287 261.897L12.8764 262.017C10.2494 255.307 8.20637 248.472 6.67649 241.544C8.28405 248.477 10.4074 255.28 13.0287 261.897ZM59.6816 172.565C57.2642 168.056 41.0308 164.473 35.9233 164.286C34.7161 156.153 29.3097 153.756 22.8039 159.012C22.0181 151.282 21.8675 151.135 17.3189 146.899C29.5222 121.707 48.8832 100.332 72.8951 85.1751C74.2095 88.7194 75.7518 92.7995 77.4663 95.8408C80.3611 100.977 83.5584 105.697 86.3258 110.965C82.7732 116.201 77.6883 122.184 73.8606 127.384C71.092 131.145 42.3512 171.898 64.6498 163.133C63.2027 166.381 61.8972 169.318 60.2477 172.47L59.6816 172.565Z" fill="#72B4C6"/>
<path fill-rule="evenodd" clip-rule="evenodd" d="M187.255 99.8089C191.786 101.467 189.733 100.78 191.404 101.057C189.733 100.78 189.405 99.6809 187.255 99.8089Z" fill="#8C5A2E"/>
<path fill-rule="evenodd" clip-rule="evenodd" d="M191.404 101.057C192.235 98.5136 195.058 96.3795 197.085 94.5621C219.191 73.6123 222.525 40.514 212.063 13.1674C211.569 11.8762 210.985 10.7952 209.684 10.2279C208.87 10.1939 208.357 10.4773 207.696 10.9089C198.488 16.9141 183.156 52.0589 180.665 63.0276C180.113 65.4581 179.373 69.5382 181.104 71.6247C181.615 72.2402 181.899 72.1979 182.617 72.1819C183.599 71.5306 183.403 71.3419 184.127 70.4204C192.189 60.1595 195.445 47.861 200.177 36.206C199.56 51.0737 186.535 72.0051 186.041 74.1844C187.472 76.2941 187.04 76.8489 186.443 79.1455C185.465 79.9545 185.497 79.7324 185.343 81.3266L187.825 82.0457C189.058 83.0904 190.187 83.4803 191.485 84.7977C192.29 85.6156 193.358 86.9812 194.078 87.6229L194.189 87.8306C192.969 93.2525 187.271 94.7913 182.45 95.4074C184.013 96.8861 185.603 98.4403 187.255 99.8089C189.405 99.6809 189.733 100.78 191.404 101.057Z" fill="#8C5A2E"/>
<path fill-rule="evenodd" clip-rule="evenodd" d="M170.814 62.8395L170.993 63.6003C171.907 63.9961 171.996 63.9711 172.951 64.108L172.601 67.8958C170.223 68.0018 168.586 67.9869 166.203 67.8738C167.132 66.8684 169.962 63.5949 170.814 62.8395Z" fill="#4E8FB0"/>
<path fill-rule="evenodd" clip-rule="evenodd" d="M129.167 61.6656C131.188 61.3608 133.003 61.1644 135.038 60.9691C133.788 62.4478 132.451 64.0955 131.161 65.5177C130.32 64.3366 129.777 62.9901 129.167 61.6656Z" fill="#72B4C6"/>
<path fill-rule="evenodd" clip-rule="evenodd" d="M127.814 61.7769L129.167 61.6656C129.777 62.9901 130.32 64.3366 131.161 65.5177L129.096 68.2048C128.702 66.0554 128.274 63.9128 127.814 61.7769Z" fill="#4E8FB0"/>
<path fill-rule="evenodd" clip-rule="evenodd" d="M304.166 159.398C290.877 165.161 240.563 188.936 237.571 190.508C227.624 183.884 220.626 176.419 220.561 169.403C220.53 165.994 221.326 161.126 221.2 156.87C220.744 141.403 221.084 123.421 213.353 109.639C211.203 105.807 208.565 103.015 205.539 100.01C211.991 90.4624 215.855 83.8524 220.349 73.2355C259.239 89.6075 289.795 120.834 304.166 159.398ZM312.944 216.832C300.22 207.555 287.554 214.723 283.408 228.664C282.068 227.452 280.612 225.945 278.958 225.277C269.466 221.441 264.172 227.905 263.184 236.421C260.038 234.93 257.537 234.243 253.954 234.95C253.202 222.957 255.601 212.123 240.84 194.097C253.115 187.949 279.966 176.032 279.966 176.032C287.694 172.488 297.997 167.54 306.011 164.66C309.819 176.235 312.124 188.252 312.87 200.415C313.018 203.299 313.106 206.194 313.142 209.102V209.277C313.142 211.811 313.076 214.329 312.944 216.832Z" fill="#72B4C6"/>
<path fill-rule="evenodd" clip-rule="evenodd" d="M313.142 209.102C313.174 211.711 313.165 214.33 313.122 216.963L312.944 216.832C313.076 214.329 313.142 211.811 313.142 209.277V209.102ZM306.011 164.66C306.34 164.541 306.666 164.427 306.987 164.315C310.529 176.273 312.243 188.246 312.87 200.415C312.124 188.252 309.819 176.235 306.011 164.66Z" fill="#72B4C6"/>
<path d="M304.584 113.971C305.089 112.187 306.809 111.004 308.658 111.173C310.507 111.341 311.985 112.816 312.158 114.662L314.255 136.443C314.404 137.992 315.016 139.46 316.011 140.655C317.007 141.85 318.34 142.718 319.836 143.144L340.879 149.146C342.663 149.65 343.846 151.37 343.678 153.219C343.509 155.069 342.034 156.546 340.189 156.72L318.407 158.816C316.858 158.965 315.391 159.577 314.195 160.573C313 161.569 312.132 162.901 311.706 164.397L305.704 185.441C305.458 186.309 304.917 187.064 304.173 187.575C303.429 188.086 302.529 188.321 301.631 188.239C299.781 188.071 298.304 186.596 298.13 184.75L296.034 162.968C295.885 161.42 295.273 159.952 294.277 158.757C293.282 157.561 291.949 156.694 290.453 156.268L269.409 150.266C268.541 150.02 267.786 149.478 267.275 148.734C266.764 147.99 266.529 147.091 266.611 146.192C266.779 144.343 268.254 142.865 270.1 142.692L291.882 140.595C293.43 140.446 294.898 139.834 296.093 138.839C297.289 137.843 298.156 136.51 298.583 135.014L304.584 113.971Z" fill="#274F61"/>
<path d="M332.29 116.351C332.364 115.952 332.716 115.66 333.123 115.66C333.53 115.66 333.882 115.952 333.957 116.351L334.848 121.065C334.911 121.4 335.074 121.708 335.315 121.949C335.556 122.19 335.865 122.353 336.2 122.416L340.913 123.307C341.312 123.382 341.605 123.734 341.605 124.141C341.605 124.548 341.312 124.9 340.913 124.975L336.2 125.866C335.865 125.929 335.556 126.092 335.315 126.333C335.074 126.574 334.911 126.882 334.848 127.218L333.957 131.931C333.92 132.125 333.817 132.301 333.665 132.427C333.513 132.553 333.321 132.623 333.123 132.623C332.716 132.623 332.364 132.33 332.29 131.931L331.398 127.218C331.335 126.882 331.172 126.574 330.931 126.333C330.69 126.092 330.382 125.929 330.047 125.866L325.334 124.975C325.139 124.938 324.964 124.835 324.837 124.683C324.711 124.53 324.642 124.339 324.642 124.141C324.642 123.734 324.934 123.382 325.334 123.307L330.047 122.416C330.382 122.353 330.69 122.19 330.931 121.949C331.172 121.708 331.335 121.4 331.398 121.065L332.29 116.351Z" fill="#274F61"/>
<path d="M270.811 185.421C275.066 185.809 278.83 182.674 279.219 178.419C279.607 174.163 276.471 170.399 272.216 170.011C267.961 169.623 264.196 172.758 263.808 177.013C263.42 181.269 266.555 185.033 270.811 185.421Z" fill="#274F61"/>
</svg>
