<svg width="345" height="359" viewBox="0 0 345 359" fill="none" xmlns="http://www.w3.org/2000/svg">
<path fill-rule="evenodd" clip-rule="evenodd" d="M4.67084 172.995C7.0253 164.025 10.2565 155.288 14.3217 146.899C18.8704 151.135 19.021 151.282 19.8066 159.012C26.3126 153.756 31.7191 156.153 32.9265 164.286C38.0336 164.473 54.267 168.056 56.6843 172.565C52.2798 172.966 44.791 172.764 40.1471 172.827C28.3221 172.99 16.4965 173.05 4.67084 172.995Z" fill="white"/>
<path fill-rule="evenodd" clip-rule="evenodd" d="M69.8979 85.1748C94.35 69.74 123.625 60.7541 155.074 60.7541C177.22 60.7541 198.287 65.2098 217.352 73.2355C212.858 83.8522 208.994 90.4624 202.542 100.01C205.569 103.015 208.207 105.807 210.356 109.639C218.088 123.422 217.747 141.403 218.204 156.87C218.329 161.126 217.71 164.768 217.565 168.807C217.356 174.578 222.422 179.749 226.087 183.59C227.325 184.886 232.962 189.837 234.574 190.508C237.567 188.936 287.88 165.161 301.17 159.398C301.819 161.141 302.434 162.895 303.015 164.66C295 167.539 284.697 172.488 276.97 176.032C276.97 176.032 250.118 187.948 237.844 194.097C252.605 212.122 250.205 222.957 250.958 234.95C254.541 234.242 257.042 234.929 260.187 236.421C261.176 227.905 266.47 221.441 275.962 225.277C277.616 225.945 279.071 227.453 280.412 228.664C284.558 214.723 297.224 207.555 309.948 216.832C309.437 226.661 307.904 236.417 305.373 245.954C298.982 246.211 293.702 245.704 287.333 245.633L249.008 245.325C245.378 254.189 241.892 260.332 233.6 265.74C231.93 266.83 227.857 268.96 226.807 270.297C225.365 272.135 223.922 275.781 222.48 277.933C217.71 285.056 210.441 289.995 202.727 293.295C193.503 297.241 185.776 297.401 176.045 297.384C172.295 319.466 173.338 334.788 184.008 355.215C174.469 356.939 164.782 357.804 155.074 357.8C88.8287 357.8 32.2295 317.929 10.0319 261.896C19.5079 254.434 26.5755 257.037 31.3776 267.604C35.6016 264.639 40.5205 263.569 43.2696 268.947C48.5031 258.771 50.9728 251.95 53.3901 240.773C51.0424 240.792 47.7852 240.898 45.9077 239.485C44.3379 236.839 47.9236 233.075 48.6862 230.309C51.4112 220.425 53.4622 210.13 55.6485 200.137C52.8253 202.272 46.5236 206.137 45.6959 200.74C44.4987 192.929 53.5452 178.692 57.2509 172.47C58.8999 169.318 60.2056 166.381 61.653 163.133C39.3539 171.898 68.0951 131.145 70.8634 127.384C74.6917 122.184 79.7758 116.201 83.3291 110.965C80.5614 105.697 77.3642 100.977 74.4689 95.8404C72.7549 92.799 71.2125 88.7192 69.8979 85.1748ZM309.874 200.415C310.051 203.29 310.142 206.185 310.146 209.102C310.111 206.205 310.021 203.309 309.874 200.415ZM3.67914 241.545C1.27203 231.155 0.00274658 220.357 0.00274658 209.277C0.201851 220.172 1.34286 230.966 3.67914 241.545Z" fill="white"/>
<path fill-rule="evenodd" clip-rule="evenodd" d="M34.3293 303.632C31.8765 300.738 29.5599 297.731 27.3871 294.622C29.3766 291.208 32.4405 287.758 34.6817 284.424C37.9992 279.49 40.756 274.32 43.2669 268.947C48.5 258.771 50.9698 251.95 53.3873 240.773C51.0395 240.792 47.7821 240.898 45.9046 239.485C44.3348 236.839 47.9208 233.075 48.6834 230.309C51.408 220.425 53.4593 210.13 55.6458 200.137C52.8224 202.272 46.5207 206.138 45.6933 200.74C44.4962 192.928 53.5421 178.692 57.2477 172.47C58.8972 169.318 60.2027 166.381 61.6498 163.133C39.3511 171.898 68.0919 131.145 70.8606 127.384C74.6883 122.184 79.7732 116.201 83.3258 110.965C80.5583 105.697 77.3611 100.977 74.4662 95.8408C72.4589 92.2792 70.6868 87.2937 69.2409 83.4118C68.6448 81.703 68.1156 79.9716 67.6544 78.2216C61.9189 56.8676 64.7185 31.6842 75.5961 12.3804C86.7969 -6.93055 96.0512 0.225934 105.872 14.9627C116.534 30.9621 120.696 43.2279 124.814 61.7769C125.274 63.9128 125.702 66.0557 126.096 68.2048L128.161 65.5177C129.451 64.0955 130.788 62.4478 132.038 60.9691C135.179 57.9659 144.911 48.1973 149.58 51.2476C152.023 50.3284 153.516 51.0225 152.317 54.021C150.755 57.9248 149.778 59.7875 147.292 63.1901C151.519 61.5138 160.852 57.1784 165.438 58.8624C166.469 59.2416 167.221 60.4613 167.779 61.365C167.806 61.9091 167.835 62.2942 167.814 62.8395C166.962 63.5949 164.132 66.8684 163.203 67.8738C165.585 67.9869 167.223 68.0018 169.601 67.8958L169.951 64.108C171.717 44.8322 178.354 30.93 189.774 15.4955C193.333 10.6844 196.586 6.38651 201.033 2.30287C205.122 -1.45157 210.152 -0.447926 213.166 4.09765C222.223 17.757 224.062 37.0947 222.437 53.1108C221.902 57.6332 219.215 69.2763 217.482 72.9212C212.931 83.7226 209.055 90.3683 202.539 100.01C205.565 103.015 208.204 105.807 210.353 109.639C218.084 123.421 217.744 141.403 218.2 156.87C218.326 161.126 217.707 164.768 217.561 168.807C217.353 174.578 223.014 180.344 226.679 184.185C227.916 185.482 232.958 189.242 234.571 190.508C253.275 209.419 250.202 226.528 250.954 234.95C250.745 238.477 250.09 241.964 249.004 245.326C245.374 254.189 241.889 260.331 233.596 265.74C231.927 266.83 227.854 268.96 226.804 270.298C225.362 272.135 223.918 275.781 222.477 277.933C217.707 285.056 210.437 289.995 202.723 293.295C193.5 297.24 185.773 297.401 176.042 297.384C172.288 319.487 173.336 334.817 184.036 355.274C181 355.671 177.969 356.095 174.941 356.545C174.034 356.68 171.338 350.293 170.369 347.889C165.063 334.724 164.128 324.444 163.653 312.369C163.489 308.224 165.162 299.396 165.605 295.21C159.498 291.881 103.902 270.163 84.8563 243.265C76.0187 230.783 74.3269 204.081 80.6036 182.013C80.6707 181.779 80.7419 181.546 80.8173 181.316L81.0578 181.327C79.766 199.088 78.5272 214.48 87.1082 230.763C93.7933 243.449 105.994 258.972 147.887 272.02C148.994 272.753 153.733 277.105 155.295 278.342C164.209 285.396 173.725 289.201 185.158 289.056C198.418 288.886 206.856 283.35 215.839 274.283C203.44 276.145 193.291 277.233 180.744 274.199C162.962 269.898 150.269 260.083 143.226 243.2C141.562 244.224 140.664 245.307 138.885 243.48C136.903 236.982 149.855 234.156 151.799 240.113C152.036 240.837 151.839 241.174 151.443 241.668C150.193 241.883 149.251 241.116 147.608 240.9C146.055 241.766 148.485 245.565 149.246 246.638C151.071 249.213 153.624 253.434 156.043 255.456C174.409 270.811 205.541 276.562 226.507 263.293C234.633 258.15 241.688 248.676 243.324 239.169C244.984 229.517 245.403 217.41 239.789 208.855C237.04 203.477 232.982 198.375 228.136 194.741C219.024 188.015 207.629 185.147 196.419 186.759C192.899 187.281 189.568 187.941 186.232 189.23L185.763 188.838L185.97 188.397C195.769 182.992 210.016 181.98 220.799 184.731C216.38 179.774 210.755 172.262 210.597 165.311C210.597 165.311 212.478 125.03 200.344 127.732C198.272 128.194 192.123 134.251 190.513 131.739C190.426 130.449 190.736 129.462 191.318 128.213C192.542 125.586 195.035 120.733 197.877 119.748C199.366 119.232 202.133 120.768 203.491 121.45C200.987 115.282 193.847 105 188.404 101.057C189.235 98.5136 192.058 96.3795 194.085 94.5621C216.191 73.6123 219.525 40.514 209.063 13.1674C208.569 11.8762 207.985 10.7952 206.684 10.2279C205.87 10.1939 205.357 10.4773 204.696 10.9089C195.488 16.9141 180.156 52.0589 177.665 63.0276C177.113 65.4581 176.373 69.5382 178.104 71.6247C178.615 72.2402 178.899 72.1979 179.617 72.1819C180.599 71.5306 180.403 71.3419 181.127 70.4204C189.189 60.1595 192.445 47.861 197.177 36.206C196.56 51.0737 183.535 72.0051 183.041 74.1844C184.472 76.2941 184.04 76.8489 183.443 79.1455C182.465 79.9545 182.497 79.7324 182.343 81.3266L184.825 82.0457C186.058 83.0904 187.186 83.4803 188.485 84.7977C189.29 85.6156 190.358 86.9812 191.078 87.6229L191.189 87.8306C189.969 93.2525 184.271 94.7913 179.45 95.4074C181.013 96.8861 182.603 98.4403 184.255 99.8089C184.836 100.849 185.449 101.914 185.997 102.97C188.139 107.098 185.938 107.879 179.881 106.957C174.155 106.086 172.145 105.235 166.994 102.484C168.589 105.157 171.623 109.698 172.144 112.662C173.019 117.644 163.948 115.256 161.644 114.065C157.134 111.734 153.659 108.529 149.811 105.222C150.461 106.868 149.691 113.381 146.82 113.576C136.796 114.256 129.388 106.94 122.583 101.476C122.583 101.476 120.907 108.782 120.343 110.281C120.208 110.642 119.201 112.852 119.201 112.852L119.168 110.161C118.5 103.42 119.065 96.7218 118.918 89.985C118.461 68.9477 115.511 47.2443 104.293 28.9888C101.246 24.0307 91.8741 4.39351 84.9944 15.3223C74.9687 31.2491 74.4525 52.2994 76.7087 70.4841C78.7493 83.5845 90.4978 101.104 98.7972 111.049C99.6032 112.015 102.036 115.042 101.435 116.107C100.112 116.901 99.096 117.64 97.8567 118.538C85.5028 128.333 80.6536 155.081 77.5778 170.016C75.103 181.721 72.8633 193.475 70.86 205.271C65.9966 232.84 61.345 261.567 46.7017 285.932C43.308 291.578 38.7868 298.856 34.3293 303.632Z" fill="#371B04"/>
<path fill-rule="evenodd" clip-rule="evenodd" d="M128.352 246.67C128.886 246.723 129.424 246.699 129.951 246.599C129.662 246.655 129.105 246.679 128.352 246.67Z" fill="#371B04"/>
<path fill-rule="evenodd" clip-rule="evenodd" d="M186.232 189.23L185.763 188.838L185.97 188.397C195.769 182.992 210.016 181.98 220.799 184.731C216.38 179.774 210.755 172.262 210.597 165.311C210.597 165.311 214.859 124.435 200.344 127.732C198.274 128.203 192.123 134.251 190.513 131.739C190.426 130.449 190.736 129.462 191.318 128.213C192.542 125.586 195.035 120.733 197.877 119.748C199.366 119.232 202.133 120.768 203.491 121.45C200.987 115.282 193.846 105 188.404 101.057C186.733 100.78 188.786 101.467 184.255 99.8089C184.836 100.849 185.449 101.914 185.997 102.97C188.139 107.098 185.938 107.879 179.881 106.957C174.155 106.086 172.145 105.235 166.994 102.484C168.589 105.157 171.623 109.698 172.144 112.662C173.019 117.644 163.948 115.256 161.644 114.065C157.134 111.734 153.659 108.529 149.811 105.222C150.461 106.868 149.691 113.381 146.82 113.576C136.796 114.256 129.388 106.94 122.583 101.476C122.583 101.476 120.907 108.782 120.343 110.281C120.208 110.642 119.201 112.852 119.201 112.852L119.168 110.161C118.5 103.42 119.065 96.7218 118.918 89.985C118.461 68.9477 115.511 47.2443 104.293 28.9888C101.246 24.0307 91.8741 4.39351 84.9944 15.3223C74.9686 31.2491 74.4525 52.2994 76.7086 70.4841C78.7493 83.5845 90.4978 101.104 98.7972 111.049C99.6032 112.015 102.036 115.042 101.435 116.107L101.776 116.172C103.086 115.648 102.49 115.621 103.622 115.942C104.482 117.432 103.974 118.004 103.369 119.591C101.508 124.632 98.7674 129.315 97.1614 134.457C95.8142 138.769 90.7752 158.266 89.7418 163.79C87.8976 173.647 87.2832 183.725 86.6451 193.721C86.2808 199.431 85.0902 199.684 85.854 208.188C88.2934 235.346 104.072 241.954 110.261 244.117C112.733 244.982 116.753 245.654 120.536 246.092C121.958 246.167 127.228 246.57 128.352 246.67C129.105 246.679 129.662 246.655 129.951 246.599C130.978 245.77 130.575 245.274 130.166 244.083C129.509 243.046 128.923 242.116 128.436 240.977C126.805 237.164 126.773 232.853 128.376 229.029C129.162 227.155 130.321 225.461 131.783 224.05C133.244 222.638 134.977 221.538 136.877 220.817C140.005 219.628 144.866 219.119 147.958 220.453C148.958 220.613 152.159 220.523 153.352 220.512C160.444 203.943 170.136 196.392 186.232 189.23ZM103.78 91.5726C105.089 89.8201 104.079 87.9247 103.389 86.1085C101.298 83.7047 95.6047 85.8817 89.3429 50.8392C87.3505 39.6878 93.2634 38.546 101.685 55.4157C99.8913 50.6362 98.0459 46.2918 96.6595 41.3635C110.389 52.8822 117.01 92.5602 106.926 107.245C104.361 103.801 98.6597 91.8541 97.1679 87.6235C99.2913 88.9599 101.552 90.4582 103.78 91.5726ZM121.533 178.116L120.564 177.85C119.746 175.937 118.703 172.387 118.612 169.787C118.326 161.544 120.323 150.419 129.327 147.383C139.092 144.091 148.15 151.953 150.814 160.943C151.649 163.759 152.657 169.359 151.297 171.997L150.61 170.534C151.02 193.356 132.874 199.612 121.533 178.116Z" fill="#A06838"/>
<path fill-rule="evenodd" clip-rule="evenodd" d="M207.374 146.445C200.101 137.456 194.122 149.691 193.673 158.616C193.381 164.42 193.275 171.152 197.074 175.873C197.424 176.309 198.529 177.018 199.061 176.91C202.127 176.285 204.675 175.751 206.198 172.56C208.361 168.029 209.872 164.53 209.67 158.408C209.463 152.112 209.578 149.168 207.374 146.445Z" fill="#371B04"/>
<path fill-rule="evenodd" clip-rule="evenodd" d="M199.061 176.91C208.576 181.494 210.001 167.863 209.761 164.049C209.435 158.867 209.199 152.054 204.78 148.704C199.905 145.009 195.042 150.447 194.842 156.399C194.723 159.973 200.304 144.74 205.503 157.217C206.999 161.762 208.361 168.029 206.198 172.56C204.675 175.751 202.127 176.285 199.061 176.91Z" fill="#ECD2A3"/>
<path fill-rule="evenodd" clip-rule="evenodd" d="M199.728 155.202C199.208 155.426 198.781 155.822 198.518 156.324C198.255 156.826 198.173 157.403 198.285 157.959C198.397 158.514 198.696 159.014 199.133 159.375C199.57 159.736 200.118 159.936 200.685 159.941C201.052 159.944 201.416 159.865 201.749 159.71C202.083 159.555 202.377 159.327 202.611 159.043C202.845 158.76 203.013 158.428 203.102 158.071C203.192 157.714 203.201 157.342 203.128 156.982C203.055 156.621 202.903 156.282 202.682 155.988C202.462 155.694 202.178 155.452 201.852 155.282C201.527 155.111 201.167 155.016 200.799 155.002C200.432 154.988 200.066 155.056 199.728 155.202Z" fill="white"/>
<path fill-rule="evenodd" clip-rule="evenodd" d="M130.801 243.579L130.166 244.083C129.509 243.046 128.923 242.116 128.436 240.977C126.805 237.164 126.773 232.853 128.376 229.029C129.162 227.155 130.321 225.461 131.783 224.05C133.244 222.638 134.977 221.538 136.877 220.817C140.005 219.628 144.866 219.119 147.958 220.453L147.512 220.708C143.399 223.038 139.109 223.94 135.549 227.238C130.96 231.491 130.049 237.634 130.801 243.579Z" fill="#371B04"/>
<path fill-rule="evenodd" clip-rule="evenodd" d="M150.61 170.534C151.02 193.356 132.874 199.612 121.533 178.116C120.975 169.165 120.676 153.566 131.537 151.107C143.713 148.351 148.659 161.814 150.61 170.534ZM133.937 158.389C135.356 158.345 136.672 158.294 138.085 158.532C139.509 158.763 140.874 159.277 142.097 160.043C143.32 160.809 144.378 161.812 145.207 162.993C149.702 169.368 149.084 182.444 142.099 187.087C130.863 189.474 126.74 174.484 128.604 166.113C129.444 162.342 130.818 160.468 133.937 158.389Z" fill="#ECD2A3"/>
<path fill-rule="evenodd" clip-rule="evenodd" d="M121.533 178.116L120.564 177.85C119.746 176.532 118.703 172.387 118.612 169.787C118.326 161.544 120.323 150.419 129.327 147.383C139.092 144.091 148.15 151.953 150.814 160.943C151.649 163.759 152.657 169.359 151.297 171.997L150.61 170.534C148.659 161.814 143.712 148.351 131.537 151.107C120.676 153.566 120.975 169.165 121.533 178.116Z" fill="#371B04"/>
<path fill-rule="evenodd" clip-rule="evenodd" d="M133.937 158.389C139.523 155.369 143.531 160.607 145.207 162.993C149.702 169.368 149.084 182.444 142.099 187.087C132.054 191.856 126.74 174.484 128.604 166.113C129.444 162.342 130.818 160.468 133.937 158.389ZM138.408 159.75C141.647 160.332 143.711 161.518 141.375 164.884C137.495 164.983 136.061 163.245 138.408 159.75Z" fill="#371B04"/>
<path fill-rule="evenodd" clip-rule="evenodd" d="M138.408 159.75C141.052 158.546 144.306 162.708 141.375 164.884C137.495 166.769 135.12 161.247 138.408 159.75Z" fill="white"/>
<path fill-rule="evenodd" clip-rule="evenodd" d="M103.78 91.5726C105.089 89.8201 104.079 87.9247 103.389 86.1085C101.298 83.7047 95.6047 85.8817 89.3429 50.8392C87.3505 39.6878 93.2634 38.546 101.685 55.4157C102.758 56.8355 103.474 60.2066 104.068 61.9394C108.566 75.0499 107.475 80.539 106.785 93.315C105.837 92.8257 104.567 92.2482 103.78 91.5726Z" fill="#552F12"/>
<path fill-rule="evenodd" clip-rule="evenodd" d="M101.685 55.4157C99.8913 50.6362 98.0459 46.2918 96.6595 41.3635C110.388 52.8822 117.01 92.5601 106.926 107.245C104.361 103.801 98.6596 91.8541 97.1679 87.6235C99.2912 88.9599 101.552 90.4582 103.78 91.5726C104.567 92.2482 105.837 92.8256 106.785 93.315C107.475 80.539 108.566 75.0499 104.068 61.9394C103.474 60.2066 102.758 56.8355 101.685 55.4157ZM134.612 124.275C142.307 124.774 145.097 128.927 151.786 133.189C152.804 133.838 151.721 135.615 151.24 136.097C148.585 138.753 142.956 135.869 139.861 133.216C136.751 130.549 134.166 129.457 130.095 130.236C125.044 131.629 122.146 135.906 117.609 137.88C116.806 138.23 116.026 138.225 115.228 137.827C114.134 136.39 116.91 133.489 118.717 131.473C122.736 126.992 127.49 123.813 134.612 124.275Z" fill="#371B04"/>
<path fill-rule="evenodd" clip-rule="evenodd" d="M174.941 356.545C122.578 363.842 67.8104 345.422 34.3293 303.632C38.7868 298.856 43.308 291.578 46.7017 285.932C61.345 261.567 65.9966 232.84 70.86 205.271C72.8633 193.475 75.103 181.721 77.5778 170.016C80.6536 155.081 85.5028 128.333 97.8567 118.538C99.096 117.64 100.112 116.901 101.435 116.107L101.776 116.172C103.086 115.648 102.49 115.621 103.622 115.942C104.482 117.432 103.974 118.004 103.369 119.591C101.508 124.632 98.7674 129.315 97.1614 134.457C95.8142 138.769 90.7752 158.266 89.7418 163.79C87.8976 173.646 87.2833 183.725 86.6451 193.721C86.2808 199.431 85.2081 205.609 86.4493 211.164C92.3652 237.643 123.887 246.27 128.352 246.67C128.886 246.723 129.424 246.699 129.951 246.599C130.978 245.77 130.575 245.274 130.166 244.083L130.801 243.579C133.778 253.274 138.697 260.871 145.131 268.561C146.008 269.61 147.113 270.91 147.887 272.02C105.994 258.972 93.7933 243.449 87.1082 230.763C78.5273 214.48 79.766 199.088 81.0578 181.327L80.8173 181.316C80.7419 181.546 80.6707 181.779 80.6036 182.013C74.3269 204.081 76.0187 230.783 84.8563 243.265C103.902 270.163 160.093 291.881 166.2 295.21C165.757 299.396 163.335 307.619 163.653 312.369C164.937 331.547 166.253 336.51 170.369 347.889C171.25 350.326 174.312 356.573 174.941 356.545Z" fill="#7D5028"/>
<path fill-rule="evenodd" clip-rule="evenodd" d="M184.005 355.215C173.334 334.788 172.292 319.466 176.042 297.384C185.773 297.401 193.5 297.24 202.723 293.295C210.437 289.995 217.706 285.056 222.476 277.933C223.918 275.781 225.362 272.135 226.804 270.298C227.854 268.96 231.927 266.83 233.596 265.74C241.889 260.331 245.374 254.189 249.004 245.326L287.329 245.633C293.698 245.704 298.978 246.211 305.369 245.954C305.109 245.967 305.625 245.944 305.369 245.954C296.818 282.278 275.06 313.73 243.438 333.544C228.176 343.023 210.996 349.595 193.543 353.544C191.947 353.905 185.231 355.409 184.036 355.274L184.005 355.215Z" fill="#5499B9"/>
<path fill-rule="evenodd" clip-rule="evenodd" d="M196.419 186.759C207.629 185.147 219.024 188.015 228.136 194.741C232.981 198.375 237.04 203.477 239.789 208.855C245.403 217.411 244.984 229.517 243.324 239.169C241.688 248.676 234.633 258.15 226.507 263.293C205.541 276.562 174.409 270.812 156.042 255.456C153.624 253.434 151.071 249.213 149.246 246.638C148.485 245.565 146.055 241.767 147.608 240.9C149.251 241.116 150.193 241.883 151.443 241.668C151.839 241.174 152.036 240.837 151.799 240.113C149.855 234.156 136.903 236.982 138.885 243.48C140.664 245.307 141.562 244.224 143.225 243.201C150.269 260.083 162.962 269.898 180.744 274.199C193.29 277.233 203.44 276.145 215.839 274.283C206.856 283.35 198.418 288.886 185.158 289.056C173.725 289.202 164.209 285.397 155.295 278.342C153.733 277.105 148.994 272.753 147.887 272.02C147.113 270.91 146.008 269.61 145.131 268.561C138.697 260.871 133.778 253.274 130.801 243.579C130.049 237.634 130.96 231.491 135.549 227.238C139.108 223.94 143.399 223.038 147.512 220.708L147.958 220.453C148.958 220.613 152.159 220.523 153.352 220.513C160.444 203.943 170.136 196.392 186.232 189.23C189.568 187.941 192.899 187.282 196.419 186.759ZM233.946 233.641C237.363 231.413 239.772 229.135 240.054 224.771C240.259 221.598 238.588 217.599 234.889 217.687C231.946 217.756 230.115 219.992 228.297 221.984C222.883 228.643 226.852 237.24 233.946 233.641ZM182.393 228.319C184.879 231.401 189.169 233.644 193.137 233.94C200.261 234.638 202.988 233.502 201.784 225.999C199.875 214.112 184.13 210.158 180.401 222.654C179.797 224.677 181.242 226.873 182.393 228.319Z" fill="#E8BC80"/>
<path fill-rule="evenodd" clip-rule="evenodd" d="M182.393 228.319C181.242 226.873 179.797 224.676 180.401 222.654C184.13 210.158 199.875 214.112 201.784 225.999C202.988 233.502 200.261 234.638 193.137 233.94C193.061 232.68 193.911 230.166 193.699 229.398C192.946 226.675 188.253 222.482 185.196 223.426C183.034 224.094 183.657 226.839 182.393 228.319Z" fill="#371B04"/>
<path fill-rule="evenodd" clip-rule="evenodd" d="M193.138 233.94C189.169 233.644 184.879 231.401 182.393 228.319C183.657 226.839 183.034 224.094 185.196 223.426C188.253 222.482 192.946 226.675 193.699 229.398C193.911 230.166 193.061 232.68 193.138 233.94Z" fill="#7F4E27"/>
<path fill-rule="evenodd" clip-rule="evenodd" d="M228.297 221.984C230.115 219.992 231.946 217.756 234.889 217.687C238.588 217.599 240.259 221.598 240.054 224.771C239.772 229.135 237.363 231.413 233.946 233.641C232.079 229.583 237.275 225.35 230.366 222.765L228.297 221.984Z" fill="#371B04"/>
<path fill-rule="evenodd" clip-rule="evenodd" d="M233.946 233.641C226.852 237.24 222.883 228.643 228.297 221.984L230.366 222.765C237.275 225.35 232.079 229.583 233.946 233.641Z" fill="#7F4E27"/>
<path fill-rule="evenodd" clip-rule="evenodd" d="M0 209.277C0 196.763 1.61916 184.608 4.6682 172.995C16.4937 173.048 28.3195 172.992 40.1441 172.827C44.7878 172.764 52.2765 172.966 56.6816 172.565L57.2477 172.47C53.5421 178.692 44.4962 192.928 45.6933 200.74C46.5207 206.138 52.8224 202.272 55.6458 200.137C53.4593 210.13 51.408 220.425 48.6834 230.309C47.9208 233.075 44.3348 236.839 45.9046 239.485C47.7821 240.898 51.0395 240.792 53.3873 240.773C50.9698 251.95 48.5 258.771 43.2669 268.947C40.5173 263.569 35.5985 264.639 31.3749 267.604C26.5728 257.037 19.505 254.435 10.0287 261.897C7.40735 255.28 5.28402 248.477 3.67646 241.544C1.33998 230.966 0.19942 220.173 0 209.277Z" fill="#72B4C6"/>
<path fill-rule="evenodd" clip-rule="evenodd" d="M10.0288 261.897L9.87638 262.017C7.2494 255.307 5.20639 248.472 3.67651 241.544C5.28407 248.477 7.40741 255.28 10.0288 261.897ZM56.6816 172.565C54.2642 168.056 38.0308 164.473 32.9233 164.286C31.7161 156.153 26.3097 153.756 19.8039 159.012C19.0181 151.282 18.8675 151.135 14.319 146.899C26.5223 121.707 45.8832 100.332 69.8951 85.1751C71.2095 88.7194 72.7519 92.7995 74.4663 95.8408C77.3611 100.977 80.5584 105.697 83.3259 110.965C79.7732 116.201 74.6883 122.184 70.8606 127.384C68.092 131.145 39.3512 171.898 61.6498 163.133C60.2027 166.381 58.8973 169.318 57.2477 172.47L56.6816 172.565Z" fill="#72B4C6"/>
<path fill-rule="evenodd" clip-rule="evenodd" d="M184.255 99.8089C188.786 101.467 186.733 100.78 188.404 101.057C186.733 100.78 186.405 99.6809 184.255 99.8089Z" fill="#8C5A2E"/>
<path fill-rule="evenodd" clip-rule="evenodd" d="M188.404 101.057C189.235 98.5136 192.058 96.3795 194.085 94.5621C216.191 73.6123 219.525 40.514 209.063 13.1674C208.569 11.8762 207.985 10.7952 206.684 10.2279C205.87 10.1939 205.357 10.4773 204.696 10.9089C195.488 16.9141 180.156 52.0589 177.665 63.0276C177.113 65.4581 176.373 69.5382 178.104 71.6247C178.615 72.2402 178.899 72.1979 179.617 72.1819C180.599 71.5306 180.403 71.3419 181.127 70.4204C189.189 60.1595 192.445 47.861 197.177 36.206C196.56 51.0737 183.535 72.0051 183.041 74.1844C184.472 76.2941 184.04 76.8489 183.443 79.1455C182.465 79.9545 182.497 79.7324 182.343 81.3266L184.825 82.0457C186.058 83.0904 187.186 83.4803 188.485 84.7977C189.29 85.6156 190.358 86.9812 191.078 87.6229L191.189 87.8306C189.969 93.2525 184.271 94.7913 179.45 95.4074C181.013 96.8861 182.603 98.4403 184.255 99.8089C186.405 99.6809 186.733 100.78 188.404 101.057Z" fill="#8C5A2E"/>
<path fill-rule="evenodd" clip-rule="evenodd" d="M167.814 62.8395L167.993 63.6003C168.907 63.9961 168.996 63.9711 169.951 64.108L169.601 67.8958C167.223 68.0018 165.586 67.9869 163.203 67.8738C164.132 66.8684 166.962 63.5949 167.814 62.8395Z" fill="#4E8FB0"/>
<path fill-rule="evenodd" clip-rule="evenodd" d="M126.167 61.6656C128.188 61.3608 130.003 61.1644 132.038 60.9691C130.788 62.4478 129.451 64.0955 128.161 65.5177C127.32 64.3366 126.777 62.9901 126.167 61.6656Z" fill="#72B4C6"/>
<path fill-rule="evenodd" clip-rule="evenodd" d="M124.814 61.7769L126.167 61.6656C126.777 62.9901 127.32 64.3366 128.161 65.5177L126.096 68.2048C125.702 66.0554 125.274 63.9128 124.814 61.7769Z" fill="#4E8FB0"/>
<path fill-rule="evenodd" clip-rule="evenodd" d="M301.166 159.398C287.877 165.161 237.563 188.936 234.571 190.508C224.624 183.884 217.626 176.419 217.561 169.403C217.53 165.994 218.326 161.126 218.2 156.87C217.744 141.403 218.084 123.421 210.353 109.639C208.203 105.807 205.565 103.015 202.539 100.01C208.991 90.4624 212.855 83.8524 217.349 73.2355C256.239 89.6075 286.795 120.834 301.166 159.398ZM309.944 216.832C297.22 207.555 284.554 214.723 280.408 228.664C279.068 227.452 277.612 225.945 275.958 225.277C266.466 221.441 261.172 227.905 260.184 236.421C257.038 234.93 254.537 234.243 250.954 234.95C250.202 222.957 252.601 212.123 237.84 194.097C250.115 187.949 276.966 176.032 276.966 176.032C284.694 172.488 294.997 167.54 303.011 164.66C306.819 176.235 309.124 188.252 309.87 200.415C310.018 203.299 310.106 206.194 310.142 209.102V209.277C310.142 211.811 310.076 214.329 309.944 216.832Z" fill="#72B4C6"/>
<path fill-rule="evenodd" clip-rule="evenodd" d="M310.142 209.102C310.174 211.711 310.165 214.33 310.122 216.963L309.944 216.832C310.076 214.329 310.142 211.811 310.142 209.277V209.102ZM303.011 164.66C303.34 164.541 303.666 164.427 303.987 164.315C307.529 176.273 309.243 188.246 309.87 200.415C309.124 188.252 306.819 176.235 303.011 164.66Z" fill="#72B4C6"/>
<path d="M301.584 113.971C302.089 112.187 303.809 111.004 305.658 111.173C307.507 111.341 308.985 112.816 309.158 114.662L311.255 136.443C311.404 137.992 312.016 139.46 313.011 140.655C314.007 141.85 315.34 142.718 316.836 143.144L337.879 149.146C339.663 149.65 340.846 151.37 340.678 153.219C340.509 155.069 339.034 156.546 337.189 156.72L315.407 158.816C313.858 158.965 312.391 159.577 311.195 160.573C310 161.569 309.132 162.901 308.706 164.397L302.704 185.441C302.458 186.309 301.917 187.064 301.173 187.575C300.429 188.086 299.529 188.321 298.631 188.239C296.781 188.071 295.304 186.596 295.13 184.75L293.034 162.968C292.885 161.42 292.273 159.952 291.277 158.757C290.282 157.561 288.949 156.694 287.453 156.268L266.409 150.266C265.541 150.02 264.786 149.478 264.275 148.734C263.764 147.99 263.529 147.091 263.611 146.192C263.779 144.343 265.254 142.865 267.1 142.692L288.882 140.595C290.43 140.446 291.898 139.834 293.093 138.839C294.289 137.843 295.156 136.51 295.583 135.014L301.584 113.971Z" fill="#274F61"/>
<path d="M329.29 116.351C329.364 115.952 329.716 115.66 330.123 115.66C330.53 115.66 330.882 115.952 330.957 116.351L331.848 121.065C331.911 121.4 332.074 121.708 332.315 121.949C332.556 122.19 332.865 122.353 333.2 122.416L337.913 123.307C338.312 123.382 338.605 123.734 338.605 124.141C338.605 124.548 338.312 124.9 337.913 124.975L333.2 125.866C332.865 125.929 332.556 126.092 332.315 126.333C332.074 126.574 331.911 126.882 331.848 127.218L330.957 131.931C330.92 132.125 330.817 132.301 330.665 132.427C330.513 132.553 330.321 132.623 330.123 132.623C329.716 132.623 329.364 132.33 329.29 131.931L328.398 127.218C328.335 126.882 328.172 126.574 327.931 126.333C327.69 126.092 327.382 125.929 327.047 125.866L322.334 124.975C322.139 124.938 321.964 124.835 321.837 124.683C321.711 124.53 321.642 124.339 321.642 124.141C321.642 123.734 321.934 123.382 322.334 123.307L327.047 122.416C327.382 122.353 327.69 122.19 327.931 121.949C328.172 121.708 328.335 121.4 328.398 121.065L329.29 116.351Z" fill="#274F61"/>
<path d="M267.811 185.421C272.066 185.809 275.83 182.674 276.219 178.419C276.607 174.163 273.471 170.399 269.216 170.011C264.961 169.623 261.196 172.758 260.808 177.013C260.42 181.269 263.555 185.033 267.811 185.421Z" fill="#274F61"/>
</svg>
