<svg width="224" height="359" viewBox="0 0 224 359" fill="none" xmlns="http://www.w3.org/2000/svg">
<path fill-rule="evenodd" clip-rule="evenodd" d="M6.94219 303.632C4.48934 300.738 2.17276 297.731 0 294.621C1.98943 291.208 5.05335 287.758 7.29459 284.424C10.6121 279.49 13.3689 274.32 15.8798 268.947C21.1129 258.771 23.5827 251.95 26.0001 240.773C23.6523 240.792 20.395 240.898 18.5175 239.485C16.9477 236.839 20.5337 233.075 21.2962 230.309C24.0208 220.425 26.0722 210.13 28.2586 200.137C25.4352 202.272 19.1336 206.138 18.3061 200.74C17.109 192.928 26.1549 178.692 29.8606 172.47C31.5101 169.318 32.8155 166.381 34.2627 163.133C11.964 171.898 40.7048 131.145 43.4735 127.384C47.3011 122.184 52.386 116.201 55.9387 110.965C53.1712 105.697 49.9739 100.977 47.0791 95.8407C45.0718 92.2792 43.2996 87.2937 41.8537 83.4118C41.2577 81.703 40.7285 79.9716 40.2673 78.2216C34.5317 56.8676 37.3313 31.6842 48.2089 12.3804C59.4098 -6.93056 68.664 0.225918 78.485 14.9627C89.1471 30.9621 93.3087 43.2279 97.4269 61.7769C97.8871 63.9128 98.3144 66.0557 98.7085 68.2048L100.774 65.5177C102.064 64.0955 103.401 62.4478 104.651 60.9691C107.792 57.9659 117.524 48.1973 122.193 51.2476C124.636 50.3284 126.129 51.0225 124.929 54.021C123.368 57.9248 122.391 59.7875 119.905 63.1901C124.132 61.5138 133.465 57.1784 138.051 58.8624C139.082 59.2416 139.834 60.4613 140.391 61.365C140.419 61.9091 140.448 62.2942 140.426 62.8395C139.575 63.5949 136.745 66.8684 135.816 67.8738C138.198 67.9869 139.835 68.0018 142.214 67.8958L142.564 64.108C144.33 44.8322 150.967 30.93 162.386 15.4955C165.946 10.6844 169.199 6.38649 173.646 2.30286C177.735 -1.45159 182.765 -0.447941 185.779 4.09763C194.836 17.757 196.675 37.0947 195.05 53.1108C194.515 57.6331 191.828 69.2763 190.094 72.9212C185.544 83.7226 181.668 90.3683 175.152 100.01C178.178 103.015 180.816 105.807 182.966 109.639C190.697 123.421 190.357 141.403 190.813 156.87C190.939 161.126 190.32 164.768 190.174 168.807C189.966 174.577 195.627 180.344 199.292 184.185C200.529 185.482 205.571 189.242 207.184 190.508C225.888 209.419 222.815 226.528 223.567 234.95C223.358 238.477 222.703 241.964 221.617 245.326C217.987 254.189 214.502 260.331 206.209 265.74C204.54 266.83 200.467 268.96 199.417 270.298C197.975 272.135 196.531 275.781 195.089 277.933C190.319 285.056 183.05 289.995 175.336 293.295C166.113 297.24 158.386 297.401 148.654 297.384C144.901 319.487 145.949 334.817 156.649 355.274C153.613 355.671 150.582 356.095 147.554 356.545C146.647 356.68 143.951 350.293 142.981 347.889C137.676 334.724 136.74 324.444 136.265 312.369C136.102 308.224 137.775 299.396 138.218 295.21C132.111 291.881 76.5146 270.163 57.4691 243.265C48.6316 230.783 46.9398 204.081 53.2164 182.013C53.2835 181.779 53.3548 181.546 53.4302 181.316L53.6706 181.327C52.3789 199.088 51.1401 214.48 59.7211 230.763C66.4061 243.449 78.6064 258.972 120.5 272.02C121.607 272.753 126.346 277.105 127.908 278.342C136.822 285.396 146.338 289.201 157.771 289.056C171.031 288.886 179.469 283.35 188.452 274.282C176.053 276.145 165.903 277.233 153.357 274.199C135.575 269.898 122.882 260.083 115.838 243.2C114.175 244.224 113.277 245.307 111.498 243.48C109.516 236.982 122.467 234.156 124.412 240.113C124.649 240.837 124.452 241.174 124.056 241.668C122.806 241.883 121.864 241.116 120.221 240.9C118.668 241.766 121.098 245.565 121.858 246.638C123.684 249.213 126.237 253.434 128.655 255.456C147.022 270.811 178.154 276.562 199.12 263.293C207.246 258.15 214.301 248.676 215.937 239.169C217.597 229.517 218.016 217.41 212.401 208.855C209.653 203.477 205.594 198.375 200.749 194.741C191.637 188.015 180.242 185.147 169.032 186.759C165.512 187.281 162.181 187.941 158.845 189.23L158.375 188.838L158.583 188.397C168.382 182.992 182.629 181.98 193.412 184.731C188.993 179.774 183.368 172.262 183.209 165.311C183.209 165.311 185.091 125.03 172.957 127.732C170.885 128.194 164.735 134.251 163.126 131.739C163.039 130.449 163.348 129.462 163.931 128.213C165.155 125.586 167.648 120.733 170.489 119.748C171.979 119.232 174.746 120.768 176.104 121.45C173.6 115.282 166.459 105 161.017 101.057C161.848 98.5136 164.671 96.3795 166.697 94.5621C188.804 73.6123 192.138 40.514 181.676 13.1674C181.182 11.8762 180.598 10.7952 179.297 10.2279C178.483 10.1939 177.97 10.4773 177.308 10.9089C168.101 16.9141 152.768 52.0589 150.278 63.0276C149.726 65.4581 148.986 69.5382 150.717 71.6247C151.228 72.2402 151.512 72.1979 152.23 72.1818C153.212 71.5306 153.016 71.3419 153.739 70.4204C161.802 60.1595 165.058 47.861 169.789 36.206C169.173 51.0737 156.148 72.005 155.654 74.1844C157.085 76.2941 156.653 76.8489 156.056 79.1455C155.078 79.9544 155.11 79.7324 154.956 81.3266L157.438 82.0457C158.671 83.0904 159.799 83.4803 161.098 84.7977C161.903 85.6156 162.971 86.9812 163.691 87.6229L163.801 87.8306C162.582 93.2524 156.884 94.7913 152.062 95.4074C153.626 96.8861 155.216 98.4403 156.868 99.8089C157.449 100.849 158.062 101.914 158.61 102.97C160.752 107.098 158.551 107.879 152.493 106.957C146.767 106.086 144.758 105.235 139.607 102.484C141.202 105.157 144.236 109.698 144.757 112.662C145.632 117.644 136.561 115.256 134.257 114.065C129.747 111.734 126.272 108.529 122.424 105.222C123.074 106.868 122.304 113.381 119.433 113.576C109.409 114.256 102.001 106.94 95.1963 101.476C95.1963 101.476 93.52 108.782 92.9563 110.281C92.8206 110.642 91.814 112.852 91.814 112.852L91.7812 110.161C91.1133 103.42 91.6776 96.7218 91.5312 89.9849C91.074 68.9477 88.1238 47.2443 76.9057 28.9888C73.8591 24.0307 64.4869 4.39349 57.6073 15.3223C47.5815 31.249 47.0654 52.2994 49.3215 70.4841C51.3621 83.5845 63.1106 101.104 71.4101 111.049C72.2161 112.015 74.649 115.042 74.0483 116.107C72.7244 116.901 71.7089 117.64 70.4695 118.538C58.1156 128.333 53.2665 155.081 50.1906 170.016C47.7159 181.721 45.4762 193.475 43.4729 205.271C38.6094 232.84 33.9579 261.567 19.3145 285.932C15.9208 291.578 11.3997 298.856 6.94219 303.632Z" fill="#371B04"/>
<path fill-rule="evenodd" clip-rule="evenodd" d="M100.965 246.67C101.499 246.723 102.037 246.699 102.564 246.599C102.275 246.655 101.718 246.679 100.965 246.67Z" fill="#371B04"/>
<path fill-rule="evenodd" clip-rule="evenodd" d="M158.845 189.23L158.375 188.838L158.583 188.397C168.382 182.992 182.629 181.98 193.412 184.731C188.993 179.774 183.368 172.262 183.209 165.311C183.209 165.311 187.472 124.435 172.957 127.732C170.886 128.203 164.735 134.251 163.126 131.739C163.039 130.449 163.348 129.462 163.931 128.213C165.155 125.586 167.648 120.733 170.489 119.748C171.979 119.232 174.746 120.768 176.104 121.45C173.6 115.282 166.459 105 161.017 101.057C159.346 100.78 161.399 101.467 156.868 99.8089C157.449 100.849 158.062 101.914 158.61 102.97C160.752 107.098 158.551 107.879 152.493 106.957C146.767 106.086 144.758 105.235 139.607 102.484C141.202 105.157 144.236 109.698 144.757 112.662C145.632 117.644 136.561 115.256 134.257 114.065C129.747 111.734 126.272 108.529 122.424 105.222C123.074 106.868 122.304 113.381 119.433 113.576C109.409 114.256 102.001 106.94 95.1964 101.476C95.1964 101.476 93.5201 108.782 92.9563 110.281C92.8206 110.642 91.814 112.852 91.814 112.852L91.7812 110.161C91.1133 103.42 91.6777 96.7218 91.5312 89.985C91.0741 68.9477 88.1238 47.2443 76.9058 28.9888C73.8591 24.0307 64.487 4.39351 57.6073 15.3223C47.5816 31.2491 47.0654 52.2994 49.3216 70.4841C51.3622 83.5845 63.1107 101.104 71.4101 111.049C72.2161 112.015 74.649 115.042 74.0484 116.107L74.3889 116.172C75.6991 115.648 75.1026 115.621 76.2349 115.942C77.0944 117.432 76.5873 118.004 75.9819 119.591C74.121 124.632 71.3803 129.315 69.7743 134.457C68.4271 138.769 63.3881 158.266 62.3547 163.79C60.5105 173.647 59.8962 183.725 59.258 193.721C58.8937 199.431 57.7031 199.684 58.4669 208.188C60.9063 235.346 76.6849 241.954 82.8741 244.117C85.3463 244.982 89.3656 245.654 93.1486 246.092C94.5713 246.167 99.8408 246.57 100.965 246.67C101.718 246.679 102.275 246.655 102.564 246.599C103.591 245.77 103.187 245.274 102.778 244.083C102.122 243.046 101.536 242.116 101.049 240.977C99.4181 237.164 99.386 232.853 100.988 229.029C101.775 227.155 102.934 225.461 104.396 224.05C105.857 222.638 107.59 221.538 109.49 220.817C112.618 219.628 117.479 219.119 120.571 220.453C121.571 220.613 124.772 220.523 125.965 220.512C133.057 203.943 142.749 196.392 158.845 189.23ZM76.3932 91.5726C77.7016 89.8201 76.6914 87.9247 76.0015 86.1085C73.9109 83.7047 68.2176 85.8817 61.9558 50.8392C59.9634 39.6878 65.8764 38.546 74.2978 55.4157C72.5042 50.6362 70.6589 46.2918 69.2724 41.3635C83.0014 52.8822 89.6228 92.5602 79.5393 107.245C76.9736 103.801 71.2726 91.8541 69.7808 87.6235C71.9042 88.9599 74.1651 90.4582 76.3932 91.5726ZM94.1457 178.116L93.1766 177.85C92.3587 175.937 91.3157 172.387 91.2253 169.787C90.9389 161.544 92.9361 150.419 101.94 147.383C111.705 144.091 120.763 151.953 123.427 160.943C124.262 163.759 125.27 169.359 123.91 171.997L123.223 170.534C123.633 193.356 105.487 199.612 94.1457 178.116Z" fill="#A06838"/>
<path fill-rule="evenodd" clip-rule="evenodd" d="M179.987 146.445C172.713 137.456 166.735 149.691 166.286 158.616C165.994 164.42 165.888 171.152 169.686 175.873C170.037 176.309 171.142 177.018 171.673 176.91C174.74 176.285 177.288 175.751 178.811 172.56C180.974 168.029 182.485 164.53 182.283 158.408C182.075 152.112 182.191 149.168 179.987 146.445Z" fill="#371B04"/>
<path fill-rule="evenodd" clip-rule="evenodd" d="M171.673 176.91C181.188 181.494 182.614 167.863 182.374 164.049C182.047 158.867 181.812 152.054 177.393 148.704C172.518 145.009 167.655 150.447 167.455 156.399C167.336 159.973 172.916 144.74 178.116 157.217C179.612 161.762 180.974 168.029 178.811 172.56C177.288 175.751 174.74 176.285 171.673 176.91Z" fill="#ECD2A3"/>
<path fill-rule="evenodd" clip-rule="evenodd" d="M172.341 155.202C171.821 155.426 171.393 155.822 171.131 156.324C170.868 156.826 170.785 157.403 170.897 157.959C171.009 158.514 171.309 159.014 171.746 159.375C172.183 159.736 172.731 159.936 173.297 159.941C173.665 159.944 174.029 159.865 174.362 159.71C174.695 159.555 174.99 159.327 175.224 159.043C175.458 158.76 175.626 158.428 175.715 158.071C175.805 157.714 175.813 157.342 175.741 156.982C175.668 156.621 175.516 156.282 175.295 155.988C175.074 155.694 174.791 155.452 174.465 155.282C174.139 155.111 173.78 155.016 173.412 155.002C173.045 154.988 172.679 155.056 172.341 155.202Z" fill="white"/>
<path fill-rule="evenodd" clip-rule="evenodd" d="M103.414 243.579L102.778 244.083C102.122 243.046 101.536 242.116 101.049 240.977C99.418 237.164 99.3859 232.853 100.988 229.029C101.775 227.155 102.934 225.461 104.395 224.05C105.857 222.638 107.59 221.538 109.49 220.817C112.618 219.628 117.479 219.119 120.571 220.453L120.125 220.708C116.012 223.038 111.721 223.94 108.162 227.238C103.573 231.491 102.662 237.634 103.414 243.579Z" fill="#371B04"/>
<path fill-rule="evenodd" clip-rule="evenodd" d="M123.223 170.534C123.633 193.356 105.487 199.612 94.1457 178.116C93.5879 169.165 93.2891 153.566 104.15 151.107C116.325 148.351 121.272 161.814 123.223 170.534ZM106.55 158.389C107.969 158.345 109.285 158.294 110.698 158.532C112.122 158.763 113.486 159.277 114.71 160.043C115.933 160.809 116.99 161.812 117.82 162.993C122.315 169.368 121.697 182.444 114.711 187.087C103.476 189.474 99.3526 174.484 101.217 166.113C102.057 162.342 103.431 160.468 106.55 158.389Z" fill="#ECD2A3"/>
<path fill-rule="evenodd" clip-rule="evenodd" d="M94.1457 178.116L93.1765 177.85C92.3586 176.532 91.3157 172.387 91.2252 169.787C90.9389 161.544 92.936 150.419 101.94 147.383C111.705 144.091 120.763 151.953 123.427 160.943C124.262 163.759 125.27 169.359 123.91 171.997L123.223 170.534C121.271 161.814 116.325 148.351 104.15 151.107C93.2891 153.566 93.5879 169.165 94.1457 178.116Z" fill="#371B04"/>
<path fill-rule="evenodd" clip-rule="evenodd" d="M106.55 158.389C112.136 155.369 116.144 160.607 117.82 162.993C122.315 169.368 121.697 182.444 114.711 187.087C104.667 191.856 99.3524 174.484 101.217 166.113C102.057 162.342 103.431 160.468 106.55 158.389ZM111.021 159.75C114.259 160.332 116.323 161.518 113.988 164.884C110.107 164.983 108.673 163.245 111.021 159.75Z" fill="#371B04"/>
<path fill-rule="evenodd" clip-rule="evenodd" d="M111.021 159.75C113.664 158.546 116.919 162.708 113.988 164.884C110.108 166.769 107.733 161.247 111.021 159.75Z" fill="white"/>
<path fill-rule="evenodd" clip-rule="evenodd" d="M76.3932 91.5726C77.7016 89.8201 76.6914 87.9247 76.0015 86.1085C73.9109 83.7047 68.2176 85.8817 61.9558 50.8392C59.9634 39.6878 65.8763 38.546 74.2978 55.4157C75.3705 56.8355 76.0866 60.2066 76.6813 61.9394C81.1793 75.0499 80.0881 80.539 79.3982 93.315C78.4499 92.8257 77.1802 92.2482 76.3932 91.5726Z" fill="#552F12"/>
<path fill-rule="evenodd" clip-rule="evenodd" d="M74.2977 55.4157C72.5041 50.6362 70.6588 46.2918 69.2723 41.3635C83.0013 52.8822 89.6226 92.5601 79.5392 107.245C76.9735 103.801 71.2725 91.8541 69.7807 87.6235C71.9041 88.9599 74.165 90.4582 76.3931 91.5726C77.1801 92.2482 78.4498 92.8256 79.3981 93.315C80.088 80.539 81.1792 75.0499 76.6812 61.9394C76.0865 60.2066 75.3704 56.8355 74.2977 55.4157ZM107.225 124.275C114.92 124.774 117.71 128.927 124.398 133.189C125.417 133.838 124.334 135.615 123.853 136.097C121.198 138.753 115.569 135.869 112.474 133.216C109.364 130.549 106.779 129.457 102.708 130.236C97.6572 131.629 94.7593 135.906 90.2215 137.88C89.4185 138.23 88.6392 138.225 87.8404 137.827C86.7468 136.39 89.5226 133.489 91.3299 131.473C95.3487 126.992 100.103 123.813 107.225 124.275Z" fill="#371B04"/>
<path fill-rule="evenodd" clip-rule="evenodd" d="M147.554 356.545C95.1903 363.842 40.4232 345.422 6.94214 303.632C11.3996 298.856 15.9208 291.578 19.3145 285.932C33.9578 261.567 38.6094 232.84 43.4728 205.271C45.4761 193.475 47.7158 181.721 50.1906 170.016C53.2664 155.081 58.1156 128.333 70.4695 118.538C71.7088 117.64 72.7244 116.901 74.0483 116.107L74.3888 116.172C75.699 115.648 75.1025 115.621 76.2348 115.942C77.0943 117.432 76.5872 118.004 75.9818 119.591C74.1209 124.632 71.3802 129.315 69.7742 134.457C68.427 138.769 63.388 158.266 62.3546 163.79C60.5104 173.646 59.8961 183.725 59.2579 193.721C58.8936 199.431 57.8209 205.609 59.0621 211.164C64.978 237.643 96.4994 246.27 100.965 246.67C101.499 246.723 102.037 246.699 102.564 246.599C103.591 245.77 103.187 245.274 102.778 244.083L103.414 243.579C106.391 253.274 111.31 260.871 117.744 268.561C118.621 269.61 119.725 270.91 120.5 272.02C78.6064 258.972 66.4061 243.449 59.721 230.763C51.14 214.48 52.3788 199.088 53.6706 181.327L53.4301 181.316C53.3547 181.546 53.2835 181.779 53.2164 182.013C46.9397 204.081 48.6315 230.783 57.4691 243.265C76.5145 270.163 132.706 291.881 138.813 295.21C138.37 299.396 135.948 307.619 136.265 312.369C137.549 331.547 138.866 336.51 142.981 347.889C143.863 350.326 146.925 356.573 147.554 356.545Z" fill="#7D5028"/>
<path fill-rule="evenodd" clip-rule="evenodd" d="M169.031 186.759C180.242 185.147 191.636 188.015 200.749 194.741C205.594 198.375 209.653 203.477 212.401 208.855C218.015 217.41 217.597 229.517 215.937 239.169C214.301 248.676 207.246 258.15 199.12 263.293C178.154 276.562 147.022 270.811 128.655 255.456C126.237 253.434 123.684 249.213 121.858 246.638C121.098 245.565 118.668 241.766 120.221 240.9C121.864 241.116 122.806 241.883 124.056 241.668C124.452 241.174 124.648 240.837 124.412 240.113C122.467 234.156 109.516 236.982 111.497 243.48C113.277 245.307 114.175 244.224 115.838 243.201C122.882 260.083 135.575 269.898 153.357 274.199C165.903 277.233 176.053 276.145 188.452 274.283C179.469 283.35 171.03 288.886 157.771 289.056C146.338 289.202 136.822 285.396 127.908 278.342C126.346 277.105 121.607 272.753 120.5 272.02C119.725 270.91 118.621 269.61 117.744 268.561C111.31 260.871 106.391 253.274 103.414 243.579C102.662 237.634 103.573 231.491 108.162 227.238C111.721 223.94 116.011 223.038 120.125 220.708L120.571 220.453C121.571 220.613 124.772 220.523 125.965 220.513C133.057 203.943 142.749 196.392 158.844 189.23C162.181 187.941 165.512 187.281 169.031 186.759ZM206.559 233.641C209.976 231.413 212.385 229.135 212.667 224.771C212.872 221.598 211.201 217.599 207.502 217.687C204.558 217.756 202.728 219.992 200.909 221.984C195.496 228.643 199.465 237.24 206.559 233.641ZM155.005 228.319C157.492 231.401 161.782 233.644 165.75 233.94C172.873 234.638 175.601 233.502 174.397 225.999C172.488 214.112 156.742 210.158 153.014 222.654C152.41 224.677 153.855 226.873 155.005 228.319Z" fill="#E8BC80"/>
<path fill-rule="evenodd" clip-rule="evenodd" d="M155.006 228.319C153.855 226.873 152.41 224.676 153.014 222.654C156.743 210.158 172.488 214.112 174.397 225.999C175.601 233.502 172.874 234.638 165.75 233.94C165.674 232.68 166.524 230.166 166.312 229.398C165.559 226.675 160.866 222.482 157.809 223.426C155.647 224.094 156.27 226.839 155.006 228.319Z" fill="#371B04"/>
<path fill-rule="evenodd" clip-rule="evenodd" d="M165.75 233.94C161.782 233.644 157.492 231.401 155.005 228.319C156.27 226.839 155.647 224.094 157.809 223.426C160.865 222.482 165.559 226.675 166.312 229.398C166.524 230.166 165.674 232.68 165.75 233.94Z" fill="#7F4E27"/>
<path fill-rule="evenodd" clip-rule="evenodd" d="M200.909 221.984C202.728 219.992 204.558 217.756 207.502 217.687C211.201 217.599 212.872 221.598 212.667 224.771C212.385 229.135 209.976 231.413 206.559 233.641C204.692 229.583 209.888 225.35 202.979 222.765L200.909 221.984Z" fill="#371B04"/>
<path fill-rule="evenodd" clip-rule="evenodd" d="M206.559 233.641C199.465 237.24 195.496 228.643 200.91 221.984L202.979 222.765C209.888 225.35 204.692 229.583 206.559 233.641Z" fill="#7F4E27"/>
<path fill-rule="evenodd" clip-rule="evenodd" d="M156.868 99.8089C161.399 101.467 159.346 100.78 161.017 101.057C159.346 100.78 159.018 99.6809 156.868 99.8089Z" fill="#8C5A2E"/>
<path fill-rule="evenodd" clip-rule="evenodd" d="M161.017 101.057C161.848 98.5136 164.671 96.3795 166.698 94.5621C188.804 73.6123 192.138 40.514 181.676 13.1674C181.182 11.8762 180.598 10.7952 179.297 10.2279C178.483 10.1939 177.97 10.4773 177.308 10.9089C168.101 16.9141 152.769 52.0589 150.278 63.0276C149.726 65.4581 148.986 69.5382 150.717 71.6247C151.228 72.2402 151.512 72.1979 152.23 72.1819C153.212 71.5306 153.016 71.3419 153.739 70.4204C161.802 60.1595 165.058 47.861 169.789 36.206C169.173 51.0737 156.148 72.0051 155.654 74.1844C157.085 76.2941 156.653 76.8489 156.056 79.1455C155.078 79.9545 155.11 79.7324 154.956 81.3266L157.438 82.0457C158.671 83.0904 159.799 83.4803 161.098 84.7977C161.903 85.6156 162.971 86.9812 163.691 87.6229L163.801 87.8306C162.582 93.2525 156.884 94.7913 152.063 95.4074C153.626 96.8861 155.216 98.4403 156.868 99.8089C159.018 99.6809 159.346 100.78 161.017 101.057Z" fill="#8C5A2E"/>
</svg>
